<?xml version="1.0" ?>
<!DOCTYPE svg  PUBLIC '-//W3C//DTD SVG 1.1//EN'  'http://www.w3.org/Graphics/SVG/1.1/DTD/svg11.dtd'>
<!-- Uploaded to: SVG Repo, www.svgrepo.com, Generator: SVG Repo Mixer Tools -->
<svg width="800px" height="800px" viewBox="0 0 67733.32 67733.32" style="shape-rendering:geometricPrecision; text-rendering:geometricPrecision; image-rendering:optimizeQuality; fill-rule:evenodd; clip-rule:evenodd" version="1.1" xml:space="preserve" xmlns="http://www.w3.org/2000/svg" xmlns:xlink="http://www.w3.org/1999/xlink" xmlns:xodm="http://www.corel.com/coreldraw/odm/2003">
<defs>
<style type="text/css">
   <![CDATA[
    .fil0 {fill:none}
    .fil8 {fill:#484B60;fill-rule:nonzero}
    .fil7 {fill:#AAD1DF;fill-rule:nonzero}
    .fil5 {fill:#CC7587;fill-rule:nonzero}
    .fil4 {fill:#DB9A3D;fill-rule:nonzero}
    .fil1 {fill:#DDCAC6;fill-rule:nonzero}
    .fil6 {fill:#DF8C9A;fill-rule:nonzero}
    .fil3 {fill:#FFC15B;fill-rule:nonzero}
    .fil2 {fill:white;fill-rule:nonzero}
   ]]>
  </style>
</defs>
<g id="Layer_x0020_1">
<rect class="fil0" height="67733.32" width="67733.32" x="-0" y="-0"/>
<g id="_2730818562880">
<path class="fil1" d="M55072.53 22009.66c-189.05,-256.18 -402.13,-487.13 -634.82,-690.15 150.07,-475.22 215.36,-982.16 180.39,-1501.45 -61.07,-906.04 -397.69,-1735.54 -934.85,-2395.15 110.12,-661.78 59.45,-1354.96 -161.43,-2023.55 418.15,-1451.97 27.93,-3055.1 -1090.12,-4156.04 -808.71,-796.36 -1874.57,-1207.81 -2949.3,-1207.81 -411.02,0 -823.22,60.1 -1222.97,181.91 -422.71,-132.42 -854.08,-197.39 -1280.14,-197.39 -251.31,0 -500.77,22.63 -745.58,67.24 -667.84,-526.98 -1502.32,-850.61 -2409.23,-897.82 -70.71,-3.68 -141.52,-5.52 -211.79,-5.52 -445.33,0 -878.33,73.09 -1286.74,209.08 -206.59,-229.65 -440.9,-439.16 -700.11,-624.31 -481.71,-1773.33 -2065.13,-3035.17 -3911.54,-3098.19 -48.29,-1.73 -96.58,-2.49 -144.66,-2.49 -1454.03,0 -2780.18,749.26 -3540.05,1938.23 -848.45,303.72 -1560.36,866.96 -2051.82,1586.67 -347.13,81.2 -688.74,207.56 -1016.81,380.26 -759.44,399.97 -1350.19,1011.4 -1731.75,1731.86 -150.29,-16.35 -301.44,-24.47 -452.81,-24.47 -820.94,-0.11 -1645.67,239.72 -2363.97,728.91 -676.5,460.82 -1181.93,1090.65 -1489.54,1800.61 -3216.1,95.39 -6309.08,291.91 -9240.2,587.5 -3733.32,137.19 -6728.21,3217.07 -6728.21,6983.32l0 30159.27 0 2228.41c0,3198.78 2068.7,5923.52 4938.64,6906.55 738.11,1207.16 2068.49,2012.72 3587.16,2012.72l8815.43 0c1293.46,0 2450.16,-584.25 3220.86,-1503.5l2019.77 0c342.04,0 674.44,-40.82 992.77,-117.92l12448.82 0c2320.56,0 4201.73,-1881.17 4201.73,-4201.72l0 -1114.04 0 -6192.69 0 -1114.04 0 -9328.88c1149.55,-172.7 2211.84,-819.21 2887.05,-1845.01 565.73,-859.38 779.79,-1862.76 660.69,-2826.52 714.94,-392.82 1317.17,-993.31 1705.23,-1759.14 168.04,-331.76 289.31,-676.62 364.99,-1026.13 709.09,-501.96 1259.24,-1219.93 1549.31,-2068.92 1219.72,-805.24 1960.21,-2210.44 1882.58,-3722.61 -94.74,-1843.6 -1377.91,-3404.49 -3156.98,-3857.08z"/>
<g>
<path class="fil2" d="M52919.37 27607.27c0,0 -924.45,-400.3 -805.67,-887.64 118.77,-487.35 2465.85,-1260.65 2465.85,-1260.65 0,0 -2139.19,-473.92 -2438.35,-815.64 -299.17,-341.71 29.99,-723.92 29.99,-723.92 0,0 -1393.93,252.06 -1906.07,-268.09 -512.25,-520.05 308.69,-1497.12 308.69,-1497.12 0,0 -2615.28,1109.6 -2888.35,1076.04 -273.18,-33.46 -1.3,-413.18 -1.3,-413.18l-1634.09 380.37c1018.87,-1942.57 2758.53,-3050.55 4868.81,-3729.11 0,0 -1869.48,-380.91 -2002.66,-1249.92 -133.28,-869.02 1122.71,-2096.64 1122.71,-2096.64 0,0 -589.45,-31.08 -743.63,-543.98 -154.3,-512.9 732.26,-1963.13 732.26,-1963.13 0,0 -1436.49,908.75 -1951.66,762.47 -515.28,-146.28 -555.34,-735.19 -555.34,-735.19 0,0 -1208.14,1274.72 -2079.1,1154.86 -870.97,-119.86 -1280.68,-1983.16 -1280.68,-1983.16 -626.7,2057.12 -1665.05,3769.6 -3485.48,4827.77 -48.29,-2.82 -96.8,-5.63 -145.09,-8.34l332.08 -1533.5c0,0 -375.5,277.73 -413.18,5.2 -37.68,-272.64 1031.43,-2904.7 1031.43,-2904.7 0,0 -964.3,835.88 -1492.14,331.76 -527.95,-504.02 -297.43,-1901.75 -297.43,-1901.75 0,0 -377.12,335.11 -723.39,41.15 -346.26,-293.86 -853.1,-2425.47 -853.1,-2425.47 0,0 -737.14,2358.66 -1222.53,2485.02 -485.51,126.35 -899.88,-791.93 -899.88,-791.93 0,0 -18.4,2736.66 -665.67,2899.83 -647.27,163.17 -1843.82,-1148.37 -1843.82,-1148.37 0,0 930.3,3734.52 663.29,4679.98 -255.74,-6.17 -509.65,-9.64 -764.53,-14.62 -683.65,-495.58 -1455.11,-1614.38 -1455.11,-1614.38 0,0 -250.11,640.66 -725.22,557.29 -475.22,-83.37 -1879.66,-1438.87 -1879.66,-1438.87 0,0 634.82,1532.85 876.49,2462.18 -4727.19,-3.47 -9307.55,199.22 -13711.53,650.08 -1538.81,0 -2786.35,1247.55 -2786.35,2786.35l0 30159.28 0 2228.41c0,1709.99 1386.24,3096.13 3096.23,3096.13l1227.84 0 0 1621.42 8815.44 0 0 -1503.4 5240.62 0 0 -118.02 13441.71 0 0 -1114.04 0 -6192.58c-0.11,0 -0.22,0 -0.33,0 0.11,0 0.22,0 0.33,0l0 -1114.15 0 -13587.77c46.23,47.75 74.06,77.63 74.06,77.63 0,0 -15.27,-701.84 384.81,-876.92 399.97,-175.19 3121.03,903.23 3121.03,903.23 0,0 -1376.93,-1383.43 -1467.56,-1857.24 -90.63,-473.81 546.03,-733.78 546.03,-733.78 0,0 -1945.81,-1295.95 -1876.19,-2012.19 69.62,-716.35 4902.8,409.07 4902.8,409.07 0,0 -1329.83,-1176.2 -1176.62,-1825.85 153.1,-649.76 2889.21,-710.28 2889.21,-710.28z"/>
<path class="fil2" d="M38114.48 9245.76c0,0 506.84,2131.61 853.1,2425.47 105.57,89.65 214.06,120.72 313.78,120.72 227.38,0 409.61,-161.87 409.61,-161.87 0,0 -230.52,1397.73 297.43,1901.75 122.24,116.82 267.98,161.65 419.67,161.65 503.27,0 1072.47,-493.41 1072.47,-493.41 0,0 -1069.11,2632.06 -1031.43,2904.7 12.45,89.76 61.39,119.75 121.59,119.75 122.68,0 291.7,-124.95 291.7,-124.95l-332.19 1533.5c48.29,2.71 96.8,5.63 145.09,8.34 1820.43,-1058.17 2858.78,-2770.65 3485.48,-4827.77 0,0 409.71,1863.3 1280.68,1983.16 39.09,5.42 78.93,8.02 119.21,8.02 857.86,0 1959.89,-1162.88 1959.89,-1162.88 0,0 40.06,588.91 555.34,735.08 38.44,10.94 81.86,16.03 129.5,16.03 591.83,0 1822.05,-778.39 1822.05,-778.39 0,0 -886.45,1450.23 -732.15,1963.13 154.18,512.9 743.63,543.98 743.63,543.98 0,0 -1255.99,1227.62 -1122.71,2096.64 133.18,869.01 2002.66,1249.92 2002.66,1249.92 -2110.28,678.56 -3849.94,1786.44 -4868.81,3729.11l1634.09 -380.37c0,0 -271.88,379.83 1.3,413.18 4.01,0.54 8.66,0.75 13.75,0.75 336.63,0 2874.6,-1076.79 2874.6,-1076.79 0,0 -820.94,977.07 -308.69,1497.23 260.07,264.08 747.53,329.04 1164.49,329.04 403.87,0 741.58,-61.06 741.58,-61.06 0,0 -329.16,382.21 -29.99,723.92 299.16,341.72 2438.35,815.64 2438.35,815.64 0,0 -2347.08,773.41 -2465.85,1260.65 -118.78,487.34 805.67,887.53 805.67,887.53 0,0 -2736.11,60.63 -2889.21,710.39 -153.21,649.76 1176.73,1825.85 1176.73,1825.85 0,0 -2781.37,-647.6 -4154.62,-647.6 -437,0 -731.51,65.62 -748.29,238.42 -69.62,716.35 1876.19,2012.3 1876.19,2012.3 0,0 -636.66,259.97 -546.03,733.89 90.63,473.7 1467.56,1857.13 1467.56,1857.13 0,0 -2327.81,-922.5 -2993.81,-922.5 -54.13,0 -97.23,6.06 -127.22,19.27 -400.08,174.97 -384.81,876.81 -384.81,876.81 0,0 -27.83,-29.77 -74.06,-77.52l0 13587.77 0 1114.15c-0.11,0 -0.22,0 -0.33,0 0.11,0 0.22,0 0.33,0l0 6192.58 0 1114.04 -13441.71 0 0 118.02 -5240.51 0 0 1503.4 -8815.55 0 0 -1621.42 -1227.84 0c-1709.99,0 -3096.23,-1386.25 -3096.23,-3096.13l0 -2228.41 0 -30159.28c0,-1538.8 1247.54,-2786.35 2786.46,-2786.35 4366.73,-447.07 8906.6,-650.08 13591.56,-650.08 39.73,0 80.01,0 119.86,0 -241.67,-929.33 -876.49,-2462.18 -876.49,-2462.18 0,0 1404.44,1355.5 1879.66,1438.87 29.01,5.09 57.17,7.47 84.56,7.47 420.11,0 640.66,-564.76 640.66,-564.76 0,0 771.57,1118.8 1455,1614.38 254.99,4.98 508.79,8.45 764.64,14.62 267.01,-945.46 -663.29,-4679.98 -663.29,-4679.98 0,0 1060.45,1162.44 1724.82,1162.44 41.26,0 81.1,-4.44 119,-14.07 647.27,-163.17 665.67,-2899.83 665.67,-2899.83 0,0 362.72,803.84 807.09,803.84 30.53,0 61.5,-3.79 92.79,-11.91 485.39,-126.36 1222.53,-2485.02 1222.53,-2485.02zm14056.71 14673.66l0 0 1.95 0 -1.95 0zm-14057.68 -18873.98l0 0c-1454.03,0 -2780.29,749.26 -3540.06,1938.23 -848.44,303.71 -1560.35,866.96 -2051.81,1586.67 -347.24,81.2 -688.74,207.56 -1016.81,380.26 -759.44,399.97 -1350.19,1011.4 -1731.76,1731.86 -150.39,-16.35 -301.54,-24.36 -452.91,-24.36 -820.83,-0.11 -1645.67,239.72 -2363.97,728.9 -676.5,460.71 -1181.82,1090.66 -1489.54,1800.51 -3215.99,95.5 -6309.08,291.91 -9240.09,587.5 -3733.33,137.19 -6728.22,3217.07 -6728.22,6983.31l0 30159.28 0 2228.41c0,3198.77 2068.71,5923.52 4938.54,6906.55 738.22,1207.16 2068.59,2012.72 3587.15,2012.72l8815.55 0c1293.34,0 2450.15,-584.25 3220.86,-1503.51l2019.65 0c342.04,0 674.45,-40.82 992.78,-117.91l12448.93 0c2320.55,0 4201.72,-1881.17 4201.72,-4201.72l0 -1114.04 -0.1 -6192.58 0.1 -1114.15 0 -9328.88c1149.45,-172.7 2211.74,-819.21 2887.05,-1845.01 565.74,-859.27 779.8,-1862.76 660.59,-2826.52 714.94,-392.82 1317.16,-993.21 1705.22,-1759.15 168.15,-331.75 289.42,-676.61 365.11,-1026.12 709.09,-501.96 1259.13,-1219.83 1549.2,-2068.92 1219.82,-805.24 1960.32,-2210.44 1882.58,-3722.61 -94.64,-1843.49 -1377.8,-3404.49 -3156.98,-3856.97 -188.94,-256.29 -402.13,-487.13 -634.82,-690.15 150.18,-475.33 215.47,-982.16 180.39,-1501.56 -61.07,-906.05 -397.59,-1735.54 -934.74,-2395.15 110.01,-661.78 59.44,-1354.85 -161.44,-2023.45 418.05,-1452.08 27.83,-3055.2 -1090.22,-4156.03 -808.6,-796.47 -1874.57,-1207.81 -2949.31,-1207.92 -410.9,0 -823.1,60.09 -1222.86,181.9 -422.7,-132.31 -854.18,-197.38 -1280.24,-197.38 -251.31,0 -500.67,22.63 -745.48,67.24 -667.84,-526.98 -1502.42,-850.61 -2409.23,-897.82 -70.81,-3.68 -141.51,-5.41 -211.78,-5.41 -445.34,0 -878.44,72.97 -1286.74,208.97 -206.7,-229.65 -440.9,-439.17 -700.22,-624.32 -481.71,-1773.22 -2065.02,-3035.16 -3911.44,-3098.18 -48.4,-1.73 -96.58,-2.49 -144.65,-2.49z"/>
</g>
<g>
<g>
<path class="fil3" d="M45980.56 33434.31c400.08,-175.19 3121.14,903.23 3121.14,903.23 0,0 -1376.93,-1383.32 -1467.56,-1857.24 -90.63,-473.81 546.03,-733.78 546.03,-733.78 0,0 -1945.81,-1295.95 -1876.19,-2012.19 69.62,-716.35 4902.8,409.07 4902.8,409.07 0,0 -1329.83,-1176.09 -1176.62,-1825.85 153.1,-649.76 2889.21,-710.39 2889.21,-710.39 0,0 -924.56,-400.19 -805.67,-887.53 118.77,-487.24 2465.85,-1260.65 2465.85,-1260.65 0,0 -2139.08,-473.92 -2438.35,-815.64 -299.27,-341.71 29.99,-723.92 29.99,-723.92 0,0 -1393.93,251.95 -1906.18,-267.98 -512.14,-520.05 308.8,-1497.23 308.8,-1497.23 0,0 -2615.28,1109.6 -2888.35,1076.14 -273.18,-33.56 -1.3,-413.28 -1.3,-413.28l-1634.19 380.37c1018.97,-1942.57 2758.63,-3050.44 4868.91,-3729.11 0,0 -1869.48,-380.91 -2002.66,-1249.92 -133.28,-869.02 1122.71,-2096.64 1122.71,-2096.64 0,0 -589.45,-31.08 -743.63,-543.98 -154.3,-512.9 732.26,-1963.13 732.26,-1963.13 0,0 -1436.49,908.75 -1951.66,762.47 -515.17,-146.28 -555.34,-735.19 -555.34,-735.19 0,0 -1208.14,1274.72 -2079.1,1154.86 -870.86,-119.86 -1280.68,-1983.16 -1280.68,-1983.16 -645.97,2120.46 -1726.88,3877 -3653.63,4925.87l355.14 -1639.94c0,0 -375.5,277.73 -413.18,5.2 -37.68,-272.64 1031.54,-2904.7 1031.54,-2904.7 0,0 -964.41,835.88 -1492.36,331.86 -527.84,-504.12 -297.32,-1901.85 -297.32,-1901.85 0,0 -377.12,335.11 -723.39,41.15 -346.26,-293.86 -853.1,-2425.37 -853.1,-2425.37 0,0 -737.14,2358.56 -1222.53,2484.92 -485.51,126.35 -899.88,-791.93 -899.88,-791.93 0,0 -18.4,2736.66 -665.67,2899.83 -647.38,163.17 -1843.82,-1148.37 -1843.82,-1148.37 0,0 1199.8,4815.21 484.64,4895.88 -715.16,80.66 -2040.88,-1844.79 -2040.88,-1844.79 0,0 -250.22,640.55 -725.33,557.18 -475.22,-83.37 -1879.66,-1438.76 -1879.66,-1438.76 0,0 1120.22,2704.17 951.31,3106.85 -168.91,402.67 -870.86,398.12 -870.86,398.12 0,0 1481.31,1333.2 1397.07,1940.84 -84.34,607.64 -1599.65,249.57 -1599.65,249.57 1311.21,1006.42 2371.65,2107.9 3056.93,3351.66 -791.06,603.09 -1721.36,816.93 -2770.65,697.61 1021.14,360.34 1724.49,885.15 2088.3,1585.48 1366.32,-87.17 4097.02,521.99 4909.84,1314.56 812.82,792.58 1320.63,3388.04 1254.59,4755.56 705.84,352.86 1241.37,1048.21 1617.52,2063.61 -135.56,-1047.45 63.99,-1980.78 654.74,-2781.15 1254.15,666.1 2371.87,1709.44 3398.32,3004.96 0,0 -381.34,-1509.68 225,-1603.34 606.23,-93.66 1962.05,1367.08 1962.05,1367.08 0,0 -15.27,-701.84 384.7,-876.92z"/>
<path class="fil4" d="M32916.42 31170.49l-163.39 -191.54c5633.67,-4798.21 10878.51,-10124.26 15588.16,-15830.36l194.13 160.46c-4718.95,5717.36 -9973.87,11053.92 -15618.9,15861.44z"/>
<path class="fil4" d="M36642.37 27628.49c-1029.04,-6834.54 1133.97,-15643.37 1155.95,-15731.73l244.81 61.29c-22.2,87.59 -2173.08,8848.56 -1151.4,15632.98l-249.36 37.46z"/>
<path class="fil4" d="M36753.79 27735.03l26.53 -250.55c83.37,8.88 8405.29,855.16 15250.33,-1736.95l89 235.5c-6902,2613.98 -15282.27,1760.88 -15365.86,1752z"/>
<path class="fil4" d="M36577.08 27597.41c-2742.82,-3576.43 -4774.93,-9456.64 -4795.18,-9515.54l238.21 -82.07c20.14,58.9 2039.47,5900.99 4757.07,9444.4l-200.1 153.21z"/>
<path class="fil4" d="M42915.94 31291.76c-1690.17,-512.79 -3946.3,-1537.83 -6232.96,-3588.13l168.04 -187.75c4495.47,4030.33 8855.28,4037.26 8898.48,4037.04l2.49 251.74c-22.09,0.54 -1146.2,-0.11 -2836.05,-512.9z"/>
<path class="fil4" d="M44222.71 20018.16c-1147.82,-2172.44 -161,-4417.95 -118.56,-4512.37l229.87 103.29c-9.74,22.09 -977.72,2230.15 111.63,4291.6l-222.94 117.48z"/>
<path class="fil4" d="M42806.37 21693.71l64.42 -243.83c2122.52,558.05 3894.66,-599.52 3912.31,-611.32l140 209.83c-75.69,50.35 -1881.07,1232.82 -4116.73,645.32z"/>
<path class="fil4" d="M36632.74 21204.31l-137.62 -211.14c2352.93,-1537.72 2820.89,-3650.93 2825.33,-3672.26l246.76 52.3c-19.27,90.52 -494.93,2236.64 -2934.47,3831.1z"/>
<path class="fil4" d="M45622.28 27372.85c354.6,-1775.17 2325.42,-2972.91 2409.23,-3022.93l129.39 216.33c-19.6,11.48 -1958.92,1191.24 -2291.65,2856.19l-246.97 -49.59z"/>
<path class="fil4" d="M40237.32 27763.72c-167.93,-2172.1 2817.86,-4323.64 2945.09,-4414.26l146.17 205.5c-29.99,21.01 -2997.17,2159.44 -2839.73,4189.06l-251.53 19.7z"/>
<path class="fil4" d="M44785.75 29912.88c-1331.57,-1261.84 -1788.6,-2159.01 -1807.33,-2196.69l225.1 -112.71c4.66,8.66 460.06,898.79 1755.57,2126.85l-173.34 182.55z"/>
<path class="fil4" d="M33485.95 21894.02l-142.82 -207.24c1680,-1159.08 2053.22,-3563.33 2056.8,-3587.58l249.35 37.24c-15.05,102.76 -394.01,2537.1 -2163.33,3757.58z"/>
<path class="fil4" d="M33737.15 25445.12c-426.07,-129.39 -742.77,-291.58 -769.41,-305.23l115.96 -224.02c12.78,6.28 1293.35,660.91 2134.22,359.26l85.1 237.01c-495.03,178.01 -1096.83,75.25 -1565.87,-67.02z"/>
</g>
<g>
<path class="fil2" d="M45521.8 55128.09l-28330.4 0c-1248.31,0 -2260.35,-1012.05 -2260.35,-2260.36l0 -1671.87c0,-1248.31 1011.94,-2260.35 2260.35,-2260.35 8842.18,-662 18354.04,-586.75 28330.4,0l0 6192.58z"/>
<path class="fil5" d="M17069.27 48935.51c8887.87,-589.45 18439.15,-523.08 28452.54,0l0 -1114.05c-9970.52,-614.46 -19581.56,-670.22 -28725.5,0 -1710.1,0 -3096.34,1386.25 -3096.34,3096.13l0 2228.41c0,1709.99 1386.24,3096.13 3096.23,3096.13l28725.61 0 0 -1114.04 -28452.54 0c-1180.85,0 -2138.11,-957.37 -2138.11,-2138.33l0 -1916.04c0,-1180.84 957.26,-2138.21 2138.11,-2138.21z"/>
<g>
<path class="fil6" d="M16796.31 47821.46c9143.94,-670.22 18754.88,-614.46 28725.5,0l0 -29849.5c-10256.36,-812.39 -20013.9,-923.58 -29035.49,0 -1538.81,0 -2786.35,1247.55 -2786.35,2786.35l0 30159.28c0,-1709.88 1386.24,-3096.13 3096.34,-3096.13z"/>
</g>
<polygon class="fil5" points="16670.93,47821.36 16288.93,47821.36 16288.93,18063.46 16670.93,18063.46 "/>
<path class="fil5" d="M39248.12 32530.64l-17108.77 0 0 -6830.75 17108.77 0 0 6830.75zm-16726.88 -381.99l0 0 16345 0 0 -6066.76 -16345 0 0 6066.76z"/>
<polygon class="fil7" points="26839.48,57863.55 18024.04,57863.55 18024.04,51303.16 26839.48,51303.16 "/>
<path class="fil8" d="M27879.57 55642.5l-6180.34 0 0 -5960.65c3090.17,-138.38 6180.34,-138.38 6180.34,-138.38l0 6099.03z"/>
<path class="fil3" d="M32080.1 56360.15l-8815.43 0 0 -5442.56c2797.5,-93.98 5749.41,-85.1 8815.43,0l0 5442.56z"/>
</g>
</g>
</g>
</g>
</svg>