<?xml version="1.0" ?>
<!DOCTYPE svg  PUBLIC '-//W3C//DTD SVG 1.1//EN'  'http://www.w3.org/Graphics/SVG/1.1/DTD/svg11.dtd'>
<!-- Uploaded to: SVG Repo, www.svgrepo.com, Generator: SVG Repo Mixer Tools -->
<svg width="800px" height="800px" viewBox="0 0 67733.32 67733.32" style="shape-rendering:geometricPrecision; text-rendering:geometricPrecision; image-rendering:optimizeQuality; fill-rule:evenodd; clip-rule:evenodd" version="1.1" xml:space="preserve" xmlns="http://www.w3.org/2000/svg" xmlns:xlink="http://www.w3.org/1999/xlink" xmlns:xodm="http://www.corel.com/coreldraw/odm/2003">
<defs>
<style type="text/css">
   <![CDATA[
    .fil0 {fill:none}
    .fil3 {fill:#484B60;fill-rule:nonzero}
    .fil5 {fill:#AAD1DF;fill-rule:nonzero}
    .fil7 {fill:#DB9A3D;fill-rule:nonzero}
    .fil1 {fill:#DDCAC6;fill-rule:nonzero}
    .fil4 {fill:#E2E8ED;fill-rule:nonzero}
    .fil6 {fill:#FFC15B;fill-rule:nonzero}
    .fil8 {fill:#FFD89E;fill-rule:nonzero}
    .fil2 {fill:white;fill-rule:nonzero}
   ]]>
  </style>
</defs>
<g id="Layer_x0020_1">
<rect class="fil0" height="67733.32" width="67733.32" x="-0" y="-0"/>
<g id="_2731011238624">
<path class="fil1" d="M50911.06 33002.09c30.32,-110.12 51.43,-222.07 79.69,-332.62 1913.98,-550.04 3319.94,-2313.08 3319.94,-4401.6 0,-2078.13 -1391.77,-3834.89 -3291.35,-4394.02 -53.27,-212.76 -112.61,-423.03 -173.46,-632.98 521.45,-552.64 900.42,-1229.79 1097.26,-1986.31 308.04,-1184.31 136.64,-2417.78 -482.69,-3473.14 -818.88,-1395.77 -2333.54,-2263.16 -3952.47,-2263.16 -373.01,0 -742.23,51.32 -1101.7,140.54 -66.16,-67.35 -132.1,-134.81 -199.23,-200.96 475.22,-1919.07 -335.44,-4004.23 -2124.57,-5054.93 -703.79,-412.97 -1505.68,-631.03 -2320.12,-631.03 -1165.59,0 -2272.7,455.08 -3109.56,1227.95 -222.5,-65.4 -445.55,-129.07 -671.41,-186.02 -568.66,-1884.64 -2319.04,-3261.9 -4386.55,-3261.9 -2067.62,0 -3818,1377.26 -4386.55,3262.01 -225.86,56.84 -448.91,120.51 -671.31,185.91 -836.64,-772.76 -1943.86,-1227.95 -3109.77,-1227.95 -814.66,0 -1616.65,218.17 -2319.47,630.7 -1055.57,619.77 -1806.57,1613.19 -2114.72,2797.61 -196.08,753.06 -196.52,1525.6 -12.88,2259.81 -66.27,65.62 -131.34,132.21 -196.63,198.69 -359.58,-89.33 -728.91,-140.43 -1102.02,-140.43 -1618.72,0 -3133.16,867.17 -3952.37,2263.05 -619.33,1055.47 -790.73,2288.94 -482.69,3473.25 196.73,756.3 575.59,1433.35 1097.26,1986.31 -60.85,209.73 -120.19,420.11 -173.46,632.98 -1899.58,559.13 -3291.34,2315.89 -3291.34,4394.02 0,2085.7 1402.16,3847.01 3312.24,4399.54 52.4,205.29 106.98,410.04 166.74,613.7 -528.81,555.56 -912.97,1237.37 -1111.44,2000.17 -308.15,1184.64 -136.54,2418.43 483.12,3473.9 819.54,1395.45 2333.76,2262.3 3951.94,2262.3 49.8,0 98.63,-8.34 148.33,-9.85 147.58,255.74 293,506.07 433.75,747.96 497.09,853.97 1174.36,2017.71 1313.38,2452.54 13.97,73.52 29.67,146.71 47.43,219.47 17.21,83.92 53.48,380.81 79.9,597.68 119.86,981.3 284.01,2325.32 888.4,3663.27 444.36,983.9 1059.04,1808.63 1812.53,2450.27 41.36,111.2 87.16,220.23 137.4,326.78l0 1038.68c0,15.59 0.1,31.07 0.21,46.56 0,3.46 0,6.6 0,10.07l0 412.42c0,593.02 122.79,1157.24 344.43,1668.84 613.16,1857.46 2003.3,3362.59 3768.4,4140.22 1300.82,1276.79 3068.2,2021.5 4939.19,2021.5 1870.78,0 3638.37,-744.93 4939.19,-2021.5 1764.23,-777.41 3154.05,-2281.57 3767.54,-4137.95 222.18,-512.14 345.39,-1077.22 345.39,-1671.11l0 -412.42c0,-9.53 0,-18.84 -0.1,-28.26 0.1,-9.42 0.1,-18.95 0.1,-28.37l0 -611.21 0 -412.53 0 -14.94c47.97,-101.89 92.15,-206.27 131.99,-312.38 758.69,-641.64 1377.37,-1468.43 1824.76,-2456 607.43,-1340.67 771.9,-2688.04 891.86,-3671.72 26.53,-216.88 62.7,-513.87 83.92,-614.9 17.65,-72.21 30.96,-134.91 43.63,-203.12 139.68,-435.48 816.4,-1597.92 1313.05,-2451.35 138.81,-238.42 284.55,-489.4 433.54,-747.85 46.23,1.4 91.92,9.2 138.27,9.2 1618.6,0 3132.94,-866.96 3952.25,-2262.73 619.45,-1055.04 791.06,-2288.83 482.91,-3473.47 -198.14,-761.72 -581.44,-1442.66 -1109.06,-1997.78 12.02,-40.5 24.9,-80.45 36.27,-121.49 14.62,-53.16 28.26,-106.54 40.71,-159.92z"/>
<g>
<g>
<path class="fil2" d="M47299.22 31634.68c20.57,-71.46 44.72,-140.65 64.53,-212.65l-4.11 -0.33c348.64,-1211.05 539.21,-2489.02 539.21,-3812.25 0,-7599.62 -6160.64,-13760.47 -13760.14,-13760.47 -7599.62,0 -13760.37,6160.85 -13760.37,13760.47 0,1549.52 259.87,3037.65 732.27,4427.58 1537.07,4932.15 4773.42,8630.83 5139.93,10773.7 348.1,1429.45 79.26,4634.83 2638.88,5036.96l0 1206.4 398.67 0 0 2827.61c0,19.16 2.49,37.68 2.92,56.62l-2.71 0 0 412.42 43.75 0c205.07,1148.05 1146.52,2040.23 2319.68,2167.56 487.24,871.51 1417.65,1461.39 2486.87,1461.39 1069.32,0 1999.73,-589.88 2486.86,-1461.39 1173.16,-127.33 2114.61,-1019.51 2319.69,-2167.56l43.96 0 0 -412.42 -2.82 0c0.33,-18.94 2.82,-37.46 2.82,-56.62l0 -611.22 0 -412.42 0 -667.4 0 -412.53 0 -724.04 398.77 0 0 -1204.23c2571.21,-394.78 2300.42,-3607.62 2649.17,-5039.13 373.87,-2185.75 3733.76,-5989.89 5230.23,-11071.13 11.04,-34.76 21.22,-70.05 31.94,-104.92z"/>
<path class="fil2" d="M34138.71 13848.98c7599.5,0 13760.14,6160.74 13760.14,13760.36 0,1323.23 -190.57,2601.31 -539.21,3812.36l4.11 0.33c-19.81,72 -43.96,141.19 -64.53,212.65 -10.72,34.87 -21,70.16 -31.94,104.92 -1496.47,5081.24 -4856.36,8885.38 -5230.23,11071.02 -348.75,1431.62 -77.96,4644.36 -2649.17,5039.24l0 1204.34 -398.77 0 0 724.04 0 412.31 0 667.41 0 412.52 0 611.22c0,19.16 -2.39,37.68 -2.82,56.62l2.82 0 0 412.53 -43.96 0c-205.08,1147.94 -1146.53,2040.23 -2319.69,2167.45 -487.13,871.51 -1417.54,1461.39 -2486.86,1461.39 -1069.22,0 -1999.63,-589.88 -2486.87,-1461.39 -1173.16,-127.22 -2114.61,-1019.51 -2319.68,-2167.45l-43.75 0 0 -412.53 2.71 0c-0.43,-18.94 -2.92,-37.46 -2.92,-56.62l0 -2827.5 -398.78 0 0 -1206.51c-2559.51,-402.13 -2290.67,-3607.51 -2638.77,-5037.07 -366.51,-2142.76 -3602.75,-5841.44 -5139.93,-10773.59 -472.4,-1389.93 -732.27,-2877.95 -732.27,-4427.69 0,-7599.62 6160.75,-13760.36 13760.37,-13760.36zm0 -4201.73l0 0c-9904.25,0 -17962.09,8057.84 -17962.09,17962.09 0,1951.12 315.73,3877.98 938.42,5728.4 989.42,3151.02 2487.41,5724.94 3692.4,7795.27 496.98,854.07 1174.24,2017.81 1313.38,2452.54 13.86,73.52 29.66,146.71 47.31,219.47 17.33,83.92 53.6,380.91 80.02,597.68 119.75,981.3 283.9,2325.32 888.29,3663.27 444.47,983.9 1059.04,1808.63 1812.63,2450.27 41.25,111.2 87.16,220.23 137.4,326.77l0 1038.69c0,15.59 0,31.07 0.22,46.55 0,3.47 0,6.61 0,10.07l0 412.53c0,592.92 122.78,1157.14 344.42,1668.74 613.16,1857.46 2003.2,3362.7 3768.41,4140.22 1300.82,1276.78 3068.19,2021.61 4939.08,2021.61 1870.88,0 3638.47,-745.04 4939.18,-2021.61 1764.24,-777.41 3154.17,-2281.57 3767.54,-4137.84 222.29,-512.14 345.4,-1077.34 345.4,-1671.12l0 -412.53c0,-9.52 0,-18.84 0,-28.26 0,-9.42 0,-18.94 0,-28.36l0 -611.22 0 -412.52 0 -14.95c48.08,-101.88 92.14,-206.26 132.1,-312.37 758.68,-641.64 1377.37,-1468.32 1824.76,-2456 607.42,-1340.67 771.78,-2688.04 891.86,-3671.72 26.42,-216.88 62.69,-513.88 83.91,-614.9 17.54,-72.22 30.86,-134.91 43.53,-203.12 139.78,-435.38 816.5,-1597.93 1313.05,-2451.35 1195.36,-2053.55 2832.05,-4865.34 3814.64,-8195.99l16.57 -54.14 5.63 -18.52c4.44,-14.61 9.2,-30.75 13.86,-46.34l5.3 -17.11c27.29,-86.62 53.71,-173.45 78.18,-262.02 14.72,-53.16 28.26,-106.44 40.82,-159.92 428.44,-1556.78 645.64,-3160.45 645.64,-4770.17 0,-9904.25 -8057.61,-17962.09 -17961.86,-17962.09z"/>
</g>
<g>
<path class="fil2" d="M19065.41 27264.7l-1060.23 0c-210.38,0 -380.8,170.31 -380.8,380.59 0,210.27 170.42,380.8 380.8,380.8l1060.23 0c210.27,0 380.7,-170.53 380.7,-380.8 0,-210.28 -170.43,-380.59 -380.7,-380.59z"/>
<path class="fil2" d="M19065.41 27264.7c210.16,0 380.7,170.31 380.7,380.59 0,210.37 -170.54,380.8 -380.7,380.8l-1060.34 0c-210.27,0 -380.69,-170.43 -380.69,-380.8 0,-210.28 170.42,-380.59 380.69,-380.59l1060.34 0zm0 -4201.73l0 0 -1060.34 0c-2526.71,0 -4582.42,2055.61 -4582.42,4582.32 0,2526.81 2055.71,4582.52 4582.42,4582.52l1060.34 0c2526.71,0 4582.42,-2055.71 4582.42,-4582.52 0,-2526.71 -2055.71,-4582.32 -4582.42,-4582.32z"/>
</g>
<g>
<path class="fil2" d="M50272.13 27264.7l-1060.23 0c-210.38,0 -380.8,170.31 -380.8,380.59 0,210.27 170.42,380.8 380.8,380.8l1060.23 0c210.27,0 380.7,-170.53 380.7,-380.8 0,-210.28 -170.43,-380.59 -380.7,-380.59z"/>
<path class="fil2" d="M50272.13 27264.7c210.27,0 380.7,170.31 380.7,380.59 0,210.37 -170.43,380.8 -380.7,380.8l-1060.23 0c-210.38,0 -380.8,-170.43 -380.8,-380.8 0,-210.28 170.42,-380.59 380.8,-380.59l1060.23 0zm0 -4201.73l0 0 -1060.23 0c-2526.82,0 -4582.42,2055.61 -4582.42,4582.32 0,2526.81 2055.6,4582.52 4582.42,4582.52l1060.23 0c2526.71,0 4582.31,-2055.71 4582.31,-4582.52 0,-2526.71 -2055.6,-4582.32 -4582.31,-4582.32z"/>
</g>
<g>
<path class="fil2" d="M34138.6 12952.89c210.27,0 380.8,-170.42 380.8,-380.69l0 -1060.34c0,-210.27 -170.53,-380.8 -380.8,-380.8 -210.27,0 -380.7,170.53 -380.7,380.8l0 1060.34c0,210.27 170.43,380.69 380.7,380.69z"/>
<path class="fil2" d="M34138.6 11131.06c210.27,0 380.8,170.53 380.8,380.8l0 1060.23c0,210.38 -170.53,380.69 -380.8,380.69 -210.27,0 -380.7,-170.31 -380.7,-380.69l0 -1060.23c0,-210.27 170.43,-380.8 380.7,-380.8zm0 -4201.62l0 0c-2526.71,0 -4582.42,2055.71 -4582.42,4582.42l0 1060.23c0,2526.82 2055.71,4582.42 4582.42,4582.42 2526.81,0 4582.42,-2055.6 4582.42,-4582.42l0 -1060.23c0,-2526.71 -2055.61,-4582.42 -4582.42,-4582.42z"/>
</g>
<g>
<path class="fil2" d="M20032.2 19806.49l914.49 536.83c181.36,106.43 414.69,45.69 521.13,-135.67 106.43,-181.25 45.69,-414.58 -135.67,-521.02l-914.38 -536.83c-181.36,-106.43 -414.59,-45.69 -521.02,135.67 -106.44,181.36 -45.69,414.7 135.45,521.02z"/>
<path class="fil2" d="M20225.25 19097.4c65.62,0 131.99,16.89 192.52,52.4l914.38 536.83c181.36,106.44 242.1,339.77 135.67,521.02 -70.92,120.84 -198.14,188.07 -328.72,188.07 -65.51,0 -131.88,-16.89 -192.41,-52.4l-914.38 -536.83c-181.25,-106.32 -242,-339.66 -135.56,-521.02 70.92,-120.83 198.03,-188.07 328.5,-188.07zm0 -4201.73l0 0c-1618.6,0 -3133.04,867.18 -3952.25,2263.17 -619.45,1055.36 -790.74,2288.83 -482.69,3473.25 308.36,1185.18 1060.01,2179.25 2116.45,2798.8l912.65 535.75c703.57,412.85 1505.35,630.81 2319.58,630.81 1618.82,0 3133.26,-867.18 3952.58,-2263.17 619.44,-1054.92 790.95,-2288.83 482.58,-3473.57 -308.47,-1184.96 -1060.01,-2178.71 -2116.13,-2798.26l-913.19 -536.07c-702.6,-412.53 -1504.81,-630.71 -2319.58,-630.71z"/>
</g>
<g>
<path class="fil2" d="M48245 35484.18l-914.49 -536.72c-181.36,-106.55 -414.69,-45.69 -521.13,135.56 -106.43,181.36 -45.69,414.69 135.67,521.13l914.39 536.72c181.25,106.43 414.58,45.69 521.02,-135.67 106.43,-181.26 45.8,-414.59 -135.46,-521.02z"/>
<path class="fil2" d="M47138.11 34894.94c65.5,0 131.88,17 192.4,52.52l914.39 536.72c181.36,106.43 241.99,339.76 135.56,521.02 -70.82,120.83 -198.04,187.96 -328.62,187.96 -65.5,0 -131.88,-16.78 -192.4,-52.4l-914.39 -536.61c-181.36,-106.55 -242.1,-339.77 -135.67,-521.13 70.92,-120.73 198.15,-188.08 328.73,-188.08zm0.11 -4201.72l0 0c-1618.39,0 -3132.73,866.96 -3952.05,2262.41 -619.87,1055.57 -791.38,2289.48 -483.01,3474.33 308.15,1184.31 1059.15,2177.85 2114.5,2797.5l915.04 537.05c702.59,412.31 1504.59,630.38 2319.14,630.38 1618.5,0 3132.94,-866.96 3952.15,-2262.74 619.55,-1055.03 791.17,-2288.82 482.91,-3473.46 -308.15,-1184.64 -1059.36,-2178.39 -2115.05,-2798.05l-914.27 -536.72c-702.27,-412.42 -1504.49,-630.7 -2319.36,-630.7z"/>
</g>
<g>
<path class="fil2" d="M41576.34 14974.5c181.36,106.43 414.48,45.69 520.91,-135.56l536.83 -914.39c106.43,-181.36 45.8,-414.69 -135.56,-521.12 -181.36,-106.44 -414.59,-45.7 -521.02,135.66l-536.83 914.39c-106.43,181.36 -45.69,414.58 135.67,521.02z"/>
<path class="fil2" d="M42306.22 13351.02c65.4,0 131.77,16.89 192.3,52.41 181.36,106.43 241.99,339.87 135.56,521.12l-536.83 914.39c-70.81,120.72 -197.93,188.07 -328.51,188.07 -65.5,0 -131.87,-17 -192.4,-52.51 -181.36,-106.44 -242.1,-339.66 -135.67,-521.02l536.83 -914.39c70.92,-120.83 198.03,-188.07 328.72,-188.07zm0 -4201.72l0 0c-1619.14,0 -3133.7,867.5 -3952.8,2263.81l-536.18 913.09c-619.87,1056.11 -791.16,2289.91 -482.79,3474.44 308.36,1184.74 1059.79,2178.38 2115.8,2797.83 701.41,411.98 1503.62,630.16 2318.49,630.16 1618.72,0 3133.05,-867.18 3952.26,-2263.06l536.51 -913.84c1278.94,-2178.82 547.11,-4992.14 -1631.17,-6271.3 -703.89,-413.07 -1505.78,-631.13 -2320.12,-631.13z"/>
</g>
<g>
<path class="fil2" d="M47859.44 19149.8l-914.39 536.83c-181.36,106.44 -242.1,339.77 -135.67,521.02 106.44,181.36 339.77,242.1 521.13,135.67l914.49 -536.83c181.26,-106.32 241.89,-339.66 135.46,-521.02 -106.44,-181.36 -339.77,-242.1 -521.02,-135.67z"/>
<path class="fil2" d="M48051.84 19097.4c130.58,0 257.8,67.24 328.62,188.07 106.43,181.36 45.8,414.7 -135.56,521.02l-914.39 536.83c-60.52,35.51 -126.9,52.4 -192.29,52.4 -130.69,0 -257.92,-67.23 -328.84,-188.07 -106.43,-181.25 -45.69,-414.58 135.67,-521.02l914.39 -536.83c60.63,-35.51 126.9,-52.4 192.4,-52.4zm0 -4201.73l0 0c-815.09,0 -1617.63,218.39 -2320.77,631.57l-913.08 535.86c-1054.93,618.9 -1806.46,1612.65 -2114.83,2797.61 -308.37,1184.74 -136.86,2418.65 482.91,3474.33 818.77,1395.23 2333.32,2262.41 3952.15,2262.41 814.23,0 1616,-217.96 2318.71,-630.27l915.36 -537.37c1054.6,-618.47 1806.24,-1612.54 2114.61,-2797.72 308.15,-1184.42 136.75,-2417.89 -482.69,-3473.25 -818.89,-1395.77 -2333.44,-2263.17 -3952.37,-2263.17z"/>
</g>
<g>
<path class="fil2" d="M20946.69 34947.46l-914.49 536.72c-181.14,106.43 -241.89,339.76 -135.45,521.02 106.43,181.36 339.66,242.1 521.02,135.67l914.38 -536.72c181.36,-106.44 242.1,-339.77 135.67,-521.13 -106.44,-181.25 -339.77,-242.11 -521.13,-135.56z"/>
<path class="fil2" d="M21139.1 34894.94c130.58,0 257.8,67.35 328.72,188.08 106.43,181.36 45.69,414.58 -135.67,521.13l-914.38 536.61c-60.53,35.62 -126.9,52.4 -192.41,52.4 -130.58,0 -257.69,-67.13 -328.61,-187.96 -106.44,-181.26 -45.69,-414.59 135.56,-521.02l914.38 -536.72c60.53,-35.52 126.9,-52.52 192.41,-52.52zm0 -4201.72l0 0c-814.88,0 -1617.09,218.28 -2320.12,631.14l-913.74 536.39c-1055.57,619.55 -1806.78,1613.3 -2114.93,2797.94 -308.26,1184.64 -136.65,2418.43 483.12,3473.9 819.42,1395.45 2333.76,2262.3 3951.93,2262.3 814.23,0 1616.01,-217.85 2318.61,-630.06l914.92 -537.04c1056.01,-619.98 1807,-1613.52 2115.26,-2797.83 308.37,-1184.85 136.75,-2418.76 -483.01,-3474.33 -819.54,-1395.56 -2333.87,-2262.41 -3952.04,-2262.41z"/>
</g>
<g>
<path class="fil2" d="M26179.84 14838.94c106.44,181.25 339.77,241.99 521.13,135.56 181.25,-106.44 242,-339.66 135.56,-521.02l-536.83 -914.39c-106.43,-181.36 -339.65,-242.1 -521.02,-135.66 -181.36,106.43 -241.99,339.76 -135.56,521.12l536.72 914.39z"/>
<path class="fil2" d="M25971.09 13351.02c130.58,0 257.8,67.24 328.61,188.07l536.83 914.39c106.44,181.36 45.69,414.58 -135.56,521.02 -60.63,35.51 -127,52.51 -192.51,52.51 -130.58,0 -257.8,-67.35 -328.62,-188.07l-536.72 -914.39c-106.43,-181.25 -45.8,-414.69 135.67,-521.12 60.53,-35.52 126.79,-52.41 192.3,-52.41zm0 -4201.72l0 0c-814.66,0 -1616.66,218.17 -2319.47,630.7 -1055.57,619.77 -1806.57,1613.19 -2114.83,2797.72 -308.37,1184.75 -136.75,2418.65 483.12,3474.44l536.29 913.63c819.32,1395.77 2333.76,2262.84 3952.26,2262.84 814.99,0 1617.3,-218.18 2320.34,-631.14 1054.16,-618.47 1805.59,-1612.11 2114.07,-2796.85 308.36,-1184.53 136.96,-2418.33 -482.59,-3473.9l-537.26 -914.82c-818.23,-1395.12 -2332.89,-2262.62 -3951.93,-2262.62z"/>
</g>
</g>
<g>
<g>
<path class="fil3" d="M34349.19 55979.68l-421.08 0c-1456.95,0 -2638.01,-1181.06 -2638.01,-2637.9l0 -1191.57c0,-1456.84 1181.06,-2637.91 2638.01,-2637.91l421.08 0c1456.84,0 2637.91,1181.07 2637.91,2637.91l0 1191.57c0,1456.84 -1181.07,2637.9 -2637.91,2637.9z"/>
<path class="fil4" d="M36532.02 54534.86l-4786.84 0c-1357.02,0 -2456.98,-1100.08 -2456.98,-2456.98l0 -6098.81c0,-1357.01 1099.96,-2456.98 2456.98,-2456.98l4786.84 0c1357.01,0 2457.09,1099.97 2457.09,2456.98l0 6098.81c0,1356.9 -1100.08,2456.98 -2457.09,2456.98z"/>
<polygon class="fil5" points="39387.88,49054.19 28889.43,49054.19 28889.43,47799.17 39387.88,47799.17 "/>
<path class="fil6" d="M47363.75 31422.03l-4.11 -0.33c348.64,-1211.05 539.32,-2489.13 539.32,-3812.25 0,-7599.62 -6160.75,-13760.36 -13760.25,-13760.36 -7599.62,0 -13760.37,6160.74 -13760.37,13760.36 0,1549.52 259.97,3037.65 732.27,4427.58 1537.07,4932.15 4773.42,8630.83 5139.93,10773.7 371.81,1526.57 38.98,5079.4 3200.29,5079.4l3807.82 0 670.43 0 429.32 0 670.44 0 3807.92 0c3161.2,0 2828.37,-3552.83 3200.29,-5079.4 373.87,-2185.75 3733.76,-5989.89 5230.23,-11071.13 11.04,-34.76 21.22,-69.95 31.94,-104.92 20.57,-71.46 44.72,-140.65 64.53,-212.65z"/>
<path class="fil7" d="M37540.93 47890.12l-286.5 0 0 -7680.17c0,-1718.11 -1397.62,-3115.83 -3115.83,-3115.83 -1718.11,0 -3115.73,1397.72 -3115.73,3115.83l0 7680.17 -286.49 0 0 -7680.17c0,-1875.86 1526.35,-3402.22 3402.22,-3402.22 1875.97,0 3402.33,1526.36 3402.33,3402.22l0 7680.17z"/>
<path class="fil7" d="M35610.92 37175.54l-286.49 0 0 -3132.29c0,-653.87 -531.85,-1185.83 -1185.83,-1185.83 -653.88,0 -1185.83,531.96 -1185.83,1185.83l0 3132.29 -286.39 0 0 -3132.29c0,-811.63 660.59,-1472.32 1472.22,-1472.32 811.74,0 1472.32,660.69 1472.32,1472.32l0 3132.29z"/>
<path class="fil7" d="M31204.89 38632.49l-4713.86 -9705.56 259.21 30.21c2835.4,326.34 5292.05,-307.4 7299.69,-1888.97l88.03 -68.97 88.35 68.21c2048.24,1580.49 4505.33,2214.99 7299.91,1889.73l260.08 -30.54 -4713.87 9705.89 -257.37 -125.38 4486.27 -9238.14c-2726.69,264.84 -5133.86,-377.88 -7161.97,-1907.27 -1990.74,1532.42 -4400.84,2173.19 -7163.8,1907.27l4486.7 9238.14 -257.37 125.38z"/>
<polygon class="fil7" points="34281.84,32714.19 33995.35,32714.19 33995.35,27180.89 34281.84,27180.89 "/>
<path class="fil8" d="M42620.55 18822.16c1345.42,1345.32 1953.6,2918.34 1358.63,3513.31 -594.97,595.08 -2167.99,-13.21 -3513.31,-1358.52 -1345.43,-1345.43 -1953.61,-2918.34 -1358.64,-3513.42 595.08,-594.98 2168,13.21 3513.32,1358.63z"/>
<polygon class="fil5" points="38989,50175.16 29288.31,50175.16 29288.31,49793.17 38989,49793.17 "/>
<polygon class="fil5" points="38989,51255.42 29288.31,51255.42 29288.31,50873.43 38989,50873.43 "/>
<polygon class="fil5" points="38989,52335.25 29288.31,52335.25 29288.31,51953.36 38989,51953.36 "/>
</g>
<g>
<path class="fil6" d="M19065.41 27264.7l-1060.34 0c-210.27,0 -380.69,170.31 -380.69,380.59 0,210.27 170.42,380.8 380.69,380.8l1060.34 0c210.27,0 380.7,-170.53 380.7,-380.8 0,-210.28 -170.43,-380.59 -380.7,-380.59z"/>
<path class="fil6" d="M50272.13 27264.7l-1060.34 0c-210.27,0 -380.69,170.31 -380.69,380.59 0,210.27 170.42,380.8 380.69,380.8l1060.34 0c210.27,0 380.7,-170.53 380.7,-380.8 0,-210.28 -170.43,-380.59 -380.7,-380.59z"/>
<path class="fil6" d="M34138.6 11131.06c-210.27,0 -380.7,170.53 -380.7,380.8l0 1060.34c0,210.27 170.43,380.69 380.7,380.69 210.27,0 380.8,-170.42 380.8,-380.69l0 -1060.34c0,-210.27 -170.53,-380.8 -380.8,-380.8z"/>
<path class="fil6" d="M21332.15 19686.63l-914.38 -536.83c-181.36,-106.43 -414.59,-45.69 -521.13,135.67 -106.33,181.36 -45.69,414.7 135.67,521.02l914.38 536.83c181.36,106.43 414.69,45.69 521.13,-135.67 106.43,-181.25 45.69,-414.58 -135.67,-521.02z"/>
<path class="fil6" d="M48244.9 35484.18l-914.39 -536.72c-181.36,-106.55 -414.69,-45.69 -521.02,135.56 -106.54,181.36 -45.8,414.69 135.56,521.13l914.39 536.72c181.36,106.43 414.58,45.69 521.12,-135.67 106.33,-181.26 45.7,-414.59 -135.66,-521.02z"/>
<path class="fil6" d="M42498.52 13403.43c-181.36,-106.44 -414.59,-45.7 -521.02,135.66l-536.83 914.39c-106.43,181.36 -45.69,414.58 135.67,521.02 181.36,106.43 414.59,45.69 520.91,-135.56l536.83 -914.39c106.54,-181.36 45.8,-414.69 -135.56,-521.12z"/>
<path class="fil6" d="M47859.44 19149.8l-914.39 536.83c-181.36,106.44 -242.1,339.77 -135.56,521.02 106.33,181.36 339.66,242.1 521.02,135.67l914.39 -536.83c181.36,-106.32 241.99,-339.66 135.66,-521.02 -106.54,-181.36 -339.76,-242.1 -521.12,-135.67z"/>
<path class="fil6" d="M20946.69 34947.46l-914.38 536.72c-181.36,106.43 -242,339.76 -135.67,521.02 106.54,181.36 339.77,242.1 521.13,135.67l914.38 -536.72c181.36,-106.44 242.1,-339.77 135.67,-521.13 -106.44,-181.25 -339.77,-242.11 -521.13,-135.56z"/>
<path class="fil6" d="M26299.81 13539.09c-106.54,-181.36 -339.76,-242.1 -521.13,-135.66 -181.25,106.43 -241.99,339.76 -135.56,521.12l536.72 914.39c106.44,181.25 339.77,241.99 521.13,135.56 181.25,-106.44 242,-339.66 135.56,-521.02l-536.72 -914.39z"/>
</g>
</g>
</g>
</g>
</svg>