<?xml version="1.0" ?>
<!DOCTYPE svg  PUBLIC '-//W3C//DTD SVG 1.1//EN'  'http://www.w3.org/Graphics/SVG/1.1/DTD/svg11.dtd'>
<!-- Uploaded to: SVG Repo, www.svgrepo.com, Generator: SVG Repo Mixer Tools -->
<svg width="800px" height="800px" viewBox="0 0 67733.32 67733.32" style="shape-rendering:geometricPrecision; text-rendering:geometricPrecision; image-rendering:optimizeQuality; fill-rule:evenodd; clip-rule:evenodd" version="1.1" xml:space="preserve" xmlns="http://www.w3.org/2000/svg" xmlns:xlink="http://www.w3.org/1999/xlink" xmlns:xodm="http://www.corel.com/coreldraw/odm/2003">
<defs>
<style type="text/css">
   <![CDATA[
    .fil0 {fill:none}
    .fil3 {fill:#484B60;fill-rule:nonzero}
    .fil8 {fill:#80B6C6;fill-rule:nonzero}
    .fil7 {fill:#AAD1DF;fill-rule:nonzero}
    .fil11 {fill:#CC7587;fill-rule:nonzero}
    .fil6 {fill:#DB9A3D;fill-rule:nonzero}
    .fil1 {fill:#DDCAC6;fill-rule:nonzero}
    .fil10 {fill:#DF8C9A;fill-rule:nonzero}
    .fil5 {fill:#E1AA8C;fill-rule:nonzero}
    .fil9 {fill:#E2E8ED;fill-rule:nonzero}
    .fil4 {fill:#FFC15B;fill-rule:nonzero}
    .fil2 {fill:white;fill-rule:nonzero}
   ]]>
  </style>
</defs>
<g id="Layer_x0020_1">
<rect class="fil0" height="67733.32" width="67733.32" x="-0" y="-0"/>
<g id="_2730830349696">
<path class="fil1" d="M48433.82 6398.65c-1161.78,0 -2061.03,176.14 -2829.78,554.4 -1168.76,575.05 -1923.66,1749.33 -1961.42,3051.3l-5.25 179.66 -3597.27 -185.91c-76.07,-3.99 -151.78,-5.89 -226.76,-5.89 -78.52,0 -156.67,1.99 -234.19,6.16l-1894.31 -2497.8 -2.81 -34.32c-169.43,-2065.01 -1924.1,-3681.85 -3994.82,-3681.85l-0.55 0c-108.12,0 -217.79,4.43 -325.92,13.31 -1067.69,87.12 -2037.3,584.92 -2730.26,1401.58 -692.87,816.3 -1026.3,1853.56 -938.91,2920.61l2.8 34.6 -1856.45 3518.21c-312.16,591.62 -449,1259.95 -394.48,1926.64l75.26 919.45 -1421.78 244.33c-1982.52,340.86 -3446.85,1923.01 -3732.11,3811.17 -1376.41,1089.06 -2131.94,2877.6 -1814.26,4725.54l661.08 3845.13c-220.96,159.12 -427.89,339.33 -617.25,538.83 -829.61,874.35 -1269.09,2066.19 -1205.79,3270.08 10.59,201.86 23,433.6 37.22,692.6 -2189.99,601.58 -4537.37,1693.9 -6440.82,3649.07 -2589.17,2659.35 -3756.21,6303.17 -3375.04,10537.8 357.16,3967.65 2076.87,7259.56 4973.13,9519.82 2438.66,1903.37 5326.31,2763.95 7862.41,3120.48 810.24,2832.68 1748.7,3876.28 2920.89,4489.82 2378.53,1244.91 8319.65,1506.18 12884.81,1506.18 2618.88,0 5171.64,-103.42 7187.94,-291.42 3555.52,-331.45 4824.34,-855.42 5596.63,-1324.34 2009.68,-1220.1 3069.4,-3738.9 4036.57,-15440.83 521.62,-6310.69 795.29,-13051.08 888.75,-15656.1 43.56,-1211.41 -389.32,-2365.76 -1218.84,-3250.16 -118.9,-126.69 -243.78,-245.6 -374.18,-356.53 18.29,-94.45 36.22,-188.45 54.06,-281.82 49.72,-200.32 81.95,-406.16 95.45,-615.26l492.28 -7582.22 2523.42 -7046.21c444.01,-1239.75 157.57,-2623.86 -742.04,-3585.5 -2050.71,-2192.16 -7113.85,-2640.52 -8357.41,-2640.61z"/>
<g>
<g>
<path class="fil2" d="M51932.29 30074.74l-1194.74 -33.33c255.19,-1176.54 499.97,-2354.89 722.48,-3537.59l5.61 0.99 524.25 -8074.68 2689.78 -7510.87c-968.89,-1035.72 -5848.02,-1934.61 -7069.48,-1333.66l-231.47 7974.71 -2147.79 6818.63 528.41 -10222.83c25.27,-489.02 -350.64,-905.95 -839.57,-931.22l-4606.19 -238.08c-477.06,-24.63 -883.85,342.13 -908.48,819.2l-594.7 11505.15 -1066.97 -13038.22 -3015.79 -3976.54 -6.16 0.55 -87.12 -1064.98c-22.28,-272.13 -260.9,-474.61 -533.12,-452.43 -272.13,22.28 -474.62,260.9 -452.43,533.12l87.12 1064.88 -6.07 0.55 -2329.09 4413.93 760.25 9290.17c-215.9,-824.99 -445.01,-1647.54 -690.51,-2467.37 -129.69,-432.87 -547.98,-704.46 -991.26,-667.06l-126.88 -738.14c-97.26,-565.82 -634.81,-945.62 -1200.63,-848.36l-2004.7 344.67c-565.81,97.17 -945.61,634.73 -848.35,1200.54l127.41 741.22c-384.87,114.92 -658.63,457.23 -681.18,859.32l-103.96 17.84c-781.8,134.39 -1306.59,877.06 -1172.2,1658.85l909.76 5291.9c35.77,207.75 233.1,347.21 440.84,311.44 207.65,-35.68 347.11,-233.01 311.43,-440.75l-484.94 -2820.82 229.65 -1667.37c166.45,2187.9 437.31,4357.78 809.42,6510.28l-2405.7 -67.2c-526.69,-14.76 -954.13,421.28 -926.51,947.52 43.65,829.79 116.55,2145.88 218.98,3767.43 -2133.12,204.12 -5372.87,908.13 -7613.93,3210.13 -1878.55,1929.45 -2683.44,4543.98 -2392.93,7771.32 271.59,3016.97 1494.68,5394.05 3635.22,7064.59 2619.96,2044.91 6063.46,2544.52 8536.72,2596.69 493.72,2543.8 1064.25,4330.34 1714.1,4670.48 2815.47,1473.58 19787.21,1474.39 22216,0 2151.23,-1305.95 3057.99,-23224.83 3237.12,-28219.06 19.92,-555.13 -416.48,-1019.97 -971.7,-1035.54zm-15813.85 -17668.77l0 0 0 0z"/>
</g>
<path class="fil2" d="M34142.08 6777.91c254.84,0 471.09,195.7 492.28,454.06l87.12 1064.98 6.16 -0.55 3015.79 3976.54 1066.97 13038.22 594.7 -11505.15c23.9,-461.94 405.88,-820.37 863.11,-820.28 15.04,0 30.16,0.36 45.37,1.17l4606.19 237.99c488.93,25.27 864.84,442.2 839.57,931.22l-528.41 10222.74 2147.79 -6818.63 231.47 -7974.62c272.31,-134.03 726.19,-193.43 1278.24,-193.43 1924.19,0.09 5038.42,722.29 5791.24,1527.09l-2689.78 7510.87 -524.25 8074.68 -5.61 -0.99c-222.51,1182.61 -467.29,2361.05 -722.48,3537.59l1194.74 33.33c555.22,15.57 991.71,480.41 971.7,1035.54 -179.22,4994.32 -1085.89,26913.02 -3237.12,28218.97 -1214.21,737.15 -6063.01,1105.63 -10960.89,1105.63 -4899.05,0 -9847.19,-368.66 -11255.11,-1105.63 -649.85,-340.14 -1220.38,-2126.59 -1714.1,-4670.39 -2473.26,-52.26 -5916.76,-551.78 -8536.72,-2596.69 -2140.54,-1670.54 -3363.63,-4047.62 -3635.22,-7064.59 -290.51,-3227.25 514.38,-5841.87 2392.93,-7771.32 2241.06,-2301.91 5480.81,-3006.01 7613.93,-3210.13 -102.43,-1621.55 -175.33,-2937.64 -218.98,-3767.43 -27.16,-517.54 385.78,-947.97 900.61,-947.97 8.61,0 17.3,0.18 25.9,0.45l2405.7 67.2c-372.11,-2152.5 -642.97,-4322.29 -809.42,-6510.28l-229.65 1667.37 484.94 2820.82c35.68,207.74 -103.78,405.07 -311.52,440.75 -21.83,3.8 -43.65,5.61 -65.12,5.61 -182.38,0 -343.67,-131.22 -375.63,-317.14l-909.76 -5291.72c-134.39,-781.88 390.4,-1524.55 1172.11,-1658.94l104.05 -17.84c22.55,-402.09 296.31,-744.49 681.18,-859.41l-127.41 -741.04c-97.26,-565.9 282.54,-1103.46 848.35,-1200.72l2004.7 -344.58c59.68,-10.23 118.91,-15.21 177.41,-15.21 496.81,0.09 936.2,357.34 1023.22,863.57l126.88 738.05c27.26,-2.26 54.33,-3.35 81.23,-3.35 412.22,0 788.31,264.25 910.03,670.5 245.5,819.83 474.61,1642.47 690.51,2467.28l-760.25 -9290.08 2329.09 -4413.84 6.07 -0.64 -87.12 -1064.88c-22.19,-272.13 180.3,-510.93 452.52,-533.12 13.68,-1.08 27.26,-1.63 40.75,-1.63zm0 -3514.23l0 0 -0.54 0c-108.13,0 -217.79,4.44 -325.92,13.32 -1067.78,87.2 -2037.3,585.01 -2730.35,1401.58 -692.78,816.29 -1026.22,1853.56 -938.92,2920.61l2.81 34.68 -1856.46 3518.13c-312.15,591.62 -448.99,1259.94 -394.38,1926.64l75.25 919.44 -1421.86 244.33c-1982.52,340.87 -3446.77,1923.02 -3732.03,3811.26 -1376.4,1088.98 -2131.93,2877.6 -1814.34,4725.46l661.08 3845.13c-220.97,159.2 -427.8,339.32 -617.25,538.83 -829.52,874.34 -1269.01,2066.19 -1205.8,3270.08 10.69,201.85 23.1,433.69 37.31,692.59 -2189.98,601.59 -4537.45,1693.91 -6440.91,3649.07 -2589.17,2659.36 -3756.2,6303.27 -3374.95,10537.89 357.17,3967.57 2076.79,7259.48 4973.14,9519.83 2438.66,1903.27 5326.31,2763.95 7862.41,3120.39 810.23,2832.68 1748.6,3876.28 2920.89,4489.91 2378.53,1244.82 8319.56,1506.17 12884.72,1506.17 2618.97,0 5171.73,-103.51 7188.02,-291.51 3555.44,-331.44 4824.35,-855.42 5596.55,-1324.24 2009.77,-1220.1 3069.49,-3739 4036.66,-15440.93 521.53,-6310.69 795.29,-13051.08 888.74,-15656.1 43.56,-1211.4 -389.31,-2365.76 -1218.83,-3250.06 -118.9,-126.7 -243.78,-245.69 -374.19,-356.53 18.3,-94.55 36.23,-188.46 53.98,-281.91 49.71,-200.32 81.95,-406.16 95.54,-615.26l492.27 -7582.23 2523.43 -7046.12c444.01,-1239.84 157.57,-2623.94 -742.13,-3585.58 -2050.71,-2192.16 -7113.77,-2640.43 -8357.41,-2640.52 -1161.69,0 -2060.94,176.04 -2829.79,554.4 -1168.75,574.96 -1923.65,1749.24 -1961.41,3051.2l-5.17 179.67 -3597.27 -185.92c-76.07,-3.89 -151.86,-5.88 -226.76,-5.88 -78.51,0 -156.66,2.08 -234.27,6.15l-1894.31 -2497.7 -2.81 -34.41c-169.35,-2065.02 -1924.02,-3681.86 -3994.74,-3681.86z"/>
</g>
<g id="_2730830347440">
<g>
<path class="fil3" d="M41041.04 43798.93c272.68,14.04 482.32,246.59 468.19,519.26l-82.04 1588.5c-14.13,272.67 -246.6,482.32 -519.27,468.28 -272.67,-14.13 -482.32,-246.59 -468.28,-519.27l82.14 -1588.58c14.13,-272.67 246.59,-482.32 519.26,-468.19z"/>
<path class="fil4" d="M40404.32 12991.52l4422.36 228.57c540.36,27.98 955.76,488.66 927.86,1029.02l-1371.06 26525.61 -6355.33 -328.54 1372.24 -26549.43c27.26,-527.15 476.79,-932.49 1003.93,-905.23z"/>
<polygon class="fil5" points="40488.72,44788.29 40988.52,44814.1 41488.4,44840 44383.48,40774.71 43921.72,40181.83 42755.32,40690.5 41186.57,40040.46 39656.4,40530.3 38549.86,39904.17 38028.15,40446.17 "/>
<polygon class="fil6" points="42874.77,40696.65 42635.79,40684.16 44057.47,13180.25 44296.46,13192.74 "/>
<polygon class="fil6" points="39775.84,40536.64 39536.86,40524.14 40958.54,13020.23 41197.53,13032.73 "/>
</g>
<g>
<path class="fil3" d="M34311.7 9350.42c-272.13,22.28 -510.84,-180.3 -533.12,-452.43l-129.77 -1585.33c-22.19,-272.13 180.3,-510.84 452.43,-533.12 272.13,-22.28 510.84,180.3 533.12,452.43l129.77 1585.42c22.19,272.13 -180.3,510.75 -452.43,533.03z"/>
<path class="fil7" d="M39037.06 39799.94l-4413.47 361.15c-539.28,44.19 -1012.18,-357.26 -1056.37,-896.54l-2166.45 -26472.45 6342.66 -519.08 2168.34 26496.27c43.11,526.15 -348.56,987.54 -874.71,1030.65z"/>
<polygon class="fil5" points="34727.64,8296.49 34228.75,8337.25 33729.87,8378.09 31400.78,12792.02 31937.26,13318.26 33025.77,12659.08 34666.96,13094.85 36118.44,12405.97 37298.42,12879.5 37743.43,12273.03 "/>
<polygon class="fil8" points="35112.97,40121.06 32866.66,12672.03 33184.89,12645.86 35431.19,40094.8 "/>
<polygon class="fil8" points="38205.64,39868.04 35959.33,12419.01 36277.55,12392.84 38523.87,39841.78 "/>
</g>
<g>
<path class="fil3" d="M44077.39 47722.58c-817.56,-154.23 -1401.85,-876.98 -1386,-1708.76 128.23,-6754.88 880.68,-13667.69 2257.18,-20738.35l6511.46 1228.34c-1280.6,6806.22 -3101.55,13510.39 -5463.06,20112.68 -282.72,790.67 -1094.4,1261.76 -1919.58,1106.09z"/>
<polygon class="fil9" points="47378.72,17560.22 44948.57,25275.48 51465.64,26504.9 51989.89,18430.13 "/>
<g>
<path class="fil10" d="M51989.89 18430.13l-4611.17 -869.91 231.47 -7974.62c1221.46,-600.95 6100.59,297.85 7069.48,1333.66l-2689.78 7510.87z"/>
<polygon class="fil11" points="48440.88,17748.67 48123.29,17712.54 48750.05,12217.51 49067.64,12253.65 "/>
<polygon class="fil11" points="50282.49,15136.14 49968.07,15079.99 50950.45,9585.6 51264.96,9641.75 "/>
<polygon class="fil11" points="50468.77,18151.75 50158.06,18076.22 51561.36,12296.12 51872.07,12371.65 "/>
<polygon class="fil11" points="51580.65,18371.99 51275.56,18276.54 53401.43,11467.51 53706.52,11562.95 "/>
</g>
</g>
<g>
<path class="fil4" d="M25754.62 28112.14c-335.07,0 -632.01,-241.43 -691.06,-582.11l-909.66 -5292.17c-163.82,-954.04 479.15,-1863.89 1432.91,-2027.98l569.71 -97.62 107.94 629.57 -569.43 97.62c-606.74,104.59 -1015.8,683.26 -911.57,1290.37l909.76 5291.9c5.89,33.69 41.47,54.88 71.99,50.53 33.78,-5.88 56.51,-38.39 50.9,-71.99l-485.13 -2820.73 629.57 -108.58 485.12 2821c65.21,380.98 -191.53,744.12 -572.15,809.96 -39.93,6.79 -79.51,10.23 -118.9,10.23z"/>
<path class="fil4" d="M32794.49 44438.28c-279.11,47.99 -544.35,-139.46 -592.35,-418.57l-249.22 -1449.57c-47.99,-279.11 139.37,-544.35 418.57,-592.26 279.19,-48.09 544.35,139.37 592.34,418.47l249.22 1449.49c48,279.19 -139.37,544.44 -418.56,592.44z"/>
<path class="fil4" d="M30042.76 23188.64l-1789.35 307.63c-625.31,107.49 -1219.38,-312.25 -1326.87,-937.47l-609.37 -3544.66c-107.49,-625.22 312.25,-1219.28 937.56,-1326.78l1789.35 -307.63c625.31,-107.49 1219.38,312.25 1326.78,937.56l609.46 3544.57c107.49,625.31 -312.25,1219.28 -937.56,1326.78z"/>
<path class="fil3" d="M34468.82 37680.41l-5516.4 948.33c-1873.48,-5871.21 -2944.25,-11880.51 -3212.21,-18027.74 -20.92,-480.87 323.02,-901.7 797.37,-983.2l3860.07 -663.71c472.72,-81.23 935.21,201.31 1072.86,660.72 1764.08,5890.4 2763.58,11912.3 2998.31,18065.6z"/>
<path class="fil3" d="M32234.74 38064.47l-1041.24 179.03 -2241.07 385.24c958.3,2852.42 3011.63,4096.8 3011.63,4096.8l1041.25 -179.04c0,0 1616.66,-2004.34 1470.49,-4867.27l-2241.06 385.24z"/>
<path class="fil4" d="M28563.66 37562.68c101.79,377.18 204.94,754.08 310.26,1130.54 6.88,24.81 31.51,40.39 56.96,36.04l5591.38 -961.19c25.45,-4.44 43.47,-27.53 41.57,-53.25 -28.35,-389.77 -58.78,-779.17 -90.47,-1168.3 -2.45,-29.34 -29.61,-50.44 -58.59,-45.46l-5811.08 999.04c-29.16,5.08 -47.72,34.05 -40.03,62.58z"/>
</g>
<g>
<path class="fil10" d="M49666.87 59329.24c-2428.79,1474.48 -19400.53,1473.67 -22216,0 -2503.78,-1310.48 -3834.27,-24060.51 -4098.16,-29080.46 -27.62,-526.24 399.73,-962.37 926.51,-947.7 9241.63,1048.31 18460.17,1334.21 27653.07,773.65 555.22,15.57 991.62,480.32 971.79,1035.45 -179.22,4994.32 -1085.98,26913.2 -3237.21,28219.06z"/>
<path class="fil10" d="M26195.73 54663.83c-2491.55,0.27 -6209.53,-426.99 -8995.67,-2601.67 -2140.54,-1670.45 -3363.63,-4047.62 -3635.22,-7064.59 -290.51,-3227.25 514.38,-5841.96 2392.93,-7771.32 3529.63,-3625.61 9541.2,-3289.19 9794.76,-3274.88l-197.41 3187.77c-48,-3.08 -4823.53,-250.22 -7317.44,2323.65 -1209.68,1248.26 -1697.61,2964.9 -1492.04,5248.34 191.71,2127.41 980.3,3706.3 2410.95,4826.88 3388.8,2654.01 9190.64,1801.13 9248.78,1792.89l492 3155.61c-110.84,17.3 -1176.72,177.32 -2701.64,177.32z"/>
<path class="fil2" d="M39618 52734.02c0,0 -13940.91,-11742.42 -9293.97,-14890.33 4647.03,-3147.92 9793.67,4247.21 9793.67,4247.21 0,0 3797.5,-6695.66 7495.11,-4447.08 3697.61,2248.58 -7994.81,15090.2 -7994.81,15090.2z"/>
<polygon class="fil11" points="23626.57,37213.94 23412.31,34026.08 23731.08,34004.89 23945.43,37192.75 "/>
<polygon class="fil11" points="25579.93,54690.09 25045.81,51468.55 25360.96,51416.11 25895.07,54637.65 "/>
</g>
</g>
</g>
</g>
</svg>