<?xml version="1.0" encoding="UTF-8" standalone="no"?>
<!-- Created with Inkscape (http://www.inkscape.org/) -->

<svg
   version="1.1"
   id="svg2"
   width="1438.3333"
   height="1347.12"
   viewBox="0 0 1438.3333 1347.12"
   sodipodi:docname="reshot-illustration-students-couple-2USZ3BR98Q.eps"
   xmlns:inkscape="http://www.inkscape.org/namespaces/inkscape"
   xmlns:sodipodi="http://sodipodi.sourceforge.net/DTD/sodipodi-0.dtd"
   xmlns="http://www.w3.org/2000/svg"
   xmlns:svg="http://www.w3.org/2000/svg">
  <defs
     id="defs6" />
  <sodipodi:namedview
     id="namedview4"
     pagecolor="#ffffff"
     bordercolor="#000000"
     borderopacity="0.25"
     inkscape:showpageshadow="2"
     inkscape:pageopacity="0.0"
     inkscape:pagecheckerboard="0"
     inkscape:deskcolor="#d1d1d1" />
  <g
     id="g8"
     inkscape:groupmode="layer"
     inkscape:label="ink_ext_XXXXXX"
     transform="matrix(1.3333333,0,0,-1.3333333,0,1347.12)">
    <g
       id="g10"
       transform="scale(0.1)">
      <path
         d="M 2273.28,9264.86 C 2760.26,9928.98 3798.75,10868.8 5158,9028.37 6513.07,7193.6 10762.5,8905.11 10783.4,7270.45 10804.2,5635.78 9092.33,5535.99 9621.04,3955.74 10149.8,2375.51 10875.7,1483.61 10778.7,923.18 10681.7,362.75 10149.8,-458.098 8896.8,316.961 7643.82,1092.07 6551.97,3812.62 3427.36,3012.15 302.75,2211.69 808.297,7266.95 2273.28,9264.86"
         style="fill:#eef6fc;fill-opacity:1;fill-rule:nonzero;stroke:none"
         id="path12" />
      <path
         d="m 6779.96,8030.88 c 0,0 -1146.28,1604.35 -2191.03,1140.77 C 3544.17,8708.07 2396.39,7932.55 1866.4,6191.01 1304.06,4343.13 1137.69,2497.69 3072.01,2476.42 5006.34,2455.15 4992.77,3234.33 6884.76,1751.93 8776.74,269.512 9728.33,-403.5 9840.14,960.41 c 111.81,1363.91 -906.7,2637.4 -201.85,3678.08 704.81,1040.67 843.91,2265.03 -487.34,2557.24 -1331.29,292.22 -2008.71,530.83 -2370.99,835.15 z"
         style="fill:none;stroke:#cae5f7;stroke-width:118.991;stroke-linecap:butt;stroke-linejoin:miter;stroke-miterlimit:10;stroke-dasharray:none;stroke-opacity:1"
         id="path14" />
      <path
         d="m 7030.72,9200.32 c 0,0 -1290.29,792.31 -1470.23,486.68 -179.94,-305.64 1945.35,-1303.71 1470.23,-486.68"
         style="fill:#cae5f7;fill-opacity:1;fill-rule:nonzero;stroke:none"
         id="path16" />
      <path
         d="m 6356.56,4279.67 c 0,0 -467.95,420.19 -106.97,1087.05 200.08,369.68 95.11,1379.69 -552.57,1066.25 -647.84,-313.52 -472.29,77.34 -837.97,-97 -365.98,-174.38 -527.65,-436.57 -478.39,-722.74 49.37,-285.97 17.24,-831.27 -207.62,-936.13 -224.86,-104.82 -1302.34,-691.17 -607.98,-1431.83 694.48,-740.61 3219.4,-196.78 2791.5,1034.4"
         style="fill:#212a53;fill-opacity:1;fill-rule:nonzero;stroke:none"
         id="path18" />
      <path
         d="M 1792.95,3389.56 C 1803.04,3117 2009.41,2451.92 2134.59,2070.92 H 4076.65 L 4424,3026.14 c 0,0 735.2,1144.8 -530.56,1904.26 -181.72,109.02 -1126.57,29.07 -1126.57,29.07 0,0 -699.89,-46.86 -1628.05,-1439.08 -29.07,-43.62 639.6,261.64 654.13,-130.83"
         style="fill:#8fb0e1;fill-opacity:1;fill-rule:nonzero;stroke:none"
         id="path20" />
      <path
         d="m 2955.85,5599.06 c 14.54,-72.68 140.29,-292.74 -407.03,-799.5 -392.48,-363.4 857.65,-407.01 1293.73,145.37 0,0 -668.67,87.22 -450.62,1308.26 163.62,916.28 -436.08,-654.13 -436.08,-654.13"
         style="fill:#f6ab7a;fill-opacity:1;fill-rule:nonzero;stroke:none"
         id="path22" />
      <path
         d="m 4279.33,3711.62 c -402.76,120.82 -1024.32,217.59 -1207.56,282.05 -48.51,-28.3 -61.16,-18.76 -96.95,-61.7 129.25,-235.73 584.07,-884.9 984.02,-1031.8 474.86,-174.44 542.68,-96.92 610.52,29.08 67.84,125.99 194.5,637 -290.03,782.37"
         style="fill:#f6ab7a;fill-opacity:1;fill-rule:nonzero;stroke:none"
         id="path24" />
      <path
         d="m 3366.32,5558.28 c -27.89,176.52 -26.45,403.31 25.61,694.91 163.62,916.28 -436.08,-654.13 -436.08,-654.13 12.45,-62.3 106.58,-232.9 -211.44,-599.48 258.18,55.56 481.12,264.11 621.91,558.7"
         style="fill:#ed8656;fill-opacity:1;fill-rule:nonzero;stroke:none"
         id="path26" />
      <path
         d="m 2825.02,6645.67 c 0,0 -145.36,-901.23 -87.22,-1104.76 58.15,-203.51 231.7,-251.01 436.08,29.08 392.48,537.84 377.95,959.38 261.65,1032.07 -116.28,72.67 -436.07,348.86 -610.51,43.61"
         style="fill:#f6ab7a;fill-opacity:1;fill-rule:nonzero;stroke:none"
         id="path28" />
      <path
         d="m 3072.13,6514.84 c -141.21,-22.68 -363.4,-101.75 -508.75,261.65 -145.37,363.4 174.42,436.08 334.32,247.11 159.9,-188.96 145.36,-276.17 43.6,-188.96 -101.75,87.22 58.16,348.88 203.52,174.42 145.36,-174.42 203.5,-436.07 130.82,-421.54 -72.68,14.54 159.89,305.26 247.12,174.44 87.21,-130.84 145.35,-319.8 43.6,-377.94 -101.74,-58.14 -218.04,145.35 -116.29,72.68 101.76,-72.68 130.83,-465.16 0,-523.3 -130.82,-58.15 -130.82,43.6 -14.54,159.88 116.3,116.32 -43.6,356.16 -101.74,123.56 -4.99,-19.94 -43.61,-152.61 -43.61,-152.61 l -87.22,-72.69 c 0,0 0,261.65 58.14,356.13 131.08,212.99 127.1,217.92 -188.97,167.17"
         style="fill:#212a53;fill-opacity:1;fill-rule:nonzero;stroke:none"
         id="path30" />
      <path
         d="m 4551.58,2897.97 c -51.39,-35.91 -68.1,-63.76 -151.68,-52.62 -128.09,17.08 -528.78,245.79 -718.71,390 -300.85,228.42 -630.79,663.86 -646.88,663.57 28.67,-55.22 463.03,-829.23 924.53,-998.75 434.01,-159.44 527.98,-108.35 592.74,-2.2"
         style="fill:#ed8656;fill-opacity:1;fill-rule:nonzero;stroke:none"
         id="path32" />
      <path
         d="m 1340.59,4169.86 c 0,-82.75 -67.08,-149.84 -149.84,-149.84 -82.76,0 -149.84,67.09 -149.84,149.84 0,82.76 67.08,149.85 149.84,149.85 82.76,0 149.84,-67.09 149.84,-149.85"
         style="fill:#fafafd;fill-opacity:1;fill-rule:nonzero;stroke:none"
         id="path34" />
      <path
         d="m 1027.78,1168.7 c 0,0 -39.663,-13.22 -132.214,0 -92.546,13.23 -343.753,66.12 -568.519,92.55 -224.762,26.45 -224.762,-13.21 -224.762,-92.55 0,-79.32 66.106,-343.747 317.313,-383.419 251.203,-39.648 674.292,0 674.292,0 0,0 211.54,13.231 211.54,66.11 0,52.89 -52.88,396.649 -277.65,317.309"
         style="fill:#241716;fill-opacity:1;fill-rule:nonzero;stroke:none"
         id="path36" />
      <path
         d="m 2865.55,2213.19 c 0,0 -1679.11,634.63 -2234.409,634.63 -555.3012,0 -780.063,-211.54 -528.856,-568.52 C 353.492,1922.33 1953.28,745.633 1953.28,745.633 h 991.6 c 0,0 634.63,753.607 -79.33,1467.557"
         style="fill:#241716;fill-opacity:1;fill-rule:nonzero;stroke:none"
         id="path38" />
      <path
         d="m 4068.7,1195.15 c 0,0 224.76,594.96 66.11,1004.82 -158.66,409.87 -475.98,713.96 -832.95,555.3 C 2944.88,2596.61 961.676,1287.7 961.676,1287.7 L 1160,851.391 c 0,0 1533.31,277.279 1771.66,515.629 13.22,13.23 0,-515.629 356.97,-594.957 244.89,-54.411 568.52,52.89 780.07,423.087"
         style="fill:#4349a6;fill-opacity:1;fill-rule:nonzero;stroke:none"
         id="path40" />
      <path
         d="m 2905.22,877.832 c 0,0 -343.76,39.668 -409.87,66.117 -78.6,31.434 -224.76,224.751 -502.41,211.531 -277.65,-13.21 -528.86,-26.44 -436.3,-211.531 92.55,-185.109 237.98,-290.867 621.4,-330.539 383.42,-39.668 740.4,-52.89 806.5,-13.219 66.11,39.668 158.66,304.09 -79.32,277.641"
         style="fill:#241716;fill-opacity:1;fill-rule:nonzero;stroke:none"
         id="path42" />
      <path
         d="m 1041,2556.95 700.73,-727.17"
         style="fill:none;stroke:#4349a6;stroke-width:37.4958;stroke-linecap:butt;stroke-linejoin:miter;stroke-miterlimit:10;stroke-dasharray:none;stroke-opacity:1"
         id="path44" />
      <path
         d="M 3447.29,1644.68 2825.89,1287.7"
         style="fill:none;stroke:#241716;stroke-width:37.4958;stroke-linecap:butt;stroke-linejoin:miter;stroke-miterlimit:10;stroke-dasharray:none;stroke-opacity:1"
         id="path46" />
      <path
         d="m 325.754,4442.06 834.436,-482.78 -379.241,-589.62 -50.879,-25.5 -457.117,1035.21 52.801,62.69"
         style="fill:#cbe6f8;fill-opacity:1;fill-rule:nonzero;stroke:none"
         id="path48" />
      <path
         d="m 88.8828,4428.14 129.2542,-44.92 400.191,-876.68 23.664,-185.96 c 0,0 -56.777,3.86 -64.617,13.65 -7.836,9.78 -488.4922,1093.91 -488.4922,1093.91"
         style="fill:#284197;fill-opacity:1;fill-rule:nonzero;stroke:none"
         id="path50" />
      <path
         d="m 1927.03,4596.26 -131.17,-4.04 c 0,0 -477.33,-374.37 -614.2,-562.44 -136.86,-188.07 -407.699,-517.22 -428.144,-638.62 -5.078,-30.17 -8.598,-39.91 -9.739,-47.97 -1.949,-13.71 -0.05,53.84 -0.05,53.84 0,0 1.761,205.56 -45.332,322.98 -47.094,117.42 -372.641,722.05 -372.641,722.05 0,0 -133.078,-51.02 -158.52,-54.96 -25.449,-3.94 447.329,-1041.09 447.329,-1041.09 0,0 41.16,-51.85 103.792,-36.13 62.633,15.73 94.954,0.09 140.899,61.8 12.914,17.35 48.848,99.89 48.848,99.89 L 1927.03,4596.26"
         style="fill:#eff7fd;fill-opacity:1;fill-rule:nonzero;stroke:none"
         id="path52" />
      <path
         d="m 2040.5,4676.63 -31.32,1.93 L 847.453,3428.45 c 0,0 -9.762,-25.46 -5.836,-39.16 3.926,-13.7 -18.699,-59.18 -69.437,-63.69 -47.578,-4.24 -117.52,-15.41 -157.598,0.84 -39.082,15.84 -525.6992,1101.7 -525.6992,1101.7 l -21.5234,-9.81 486.4956,-1052.8 c 0,0 -11.718,-27.42 3.95,-37.2 15.672,-9.77 92.054,-44.94 111.636,-46.87 19.579,-1.95 1184.879,-488.33 1184.879,-488.33 l 150.69,58.87 46.91,74.44 784.28,826.89 -795.7,923.3"
         style="fill:#3a52ac;fill-opacity:1;fill-rule:nonzero;stroke:none"
         id="path54" />
      <path
         d="M 2865.51,3812.09 2040.5,4676.63 876.832,3412.81 2010.85,2879.42 l 907.56,877.9 -52.9,54.77"
         style="fill:#445fb5;fill-opacity:1;fill-rule:nonzero;stroke:none"
         id="path56" />
      <path
         d="m 3221.62,3954.01 c 0,0 -97.01,56.5 -227.85,113.48 -130.84,56.98 -221.19,145.31 -259.87,141.59 -38.68,-3.72 -250.4,-125.48 -250.4,-125.48 l -309.33,-149.51 c 0,0 -58.9,-51.63 -44.13,-82.93 14.76,-31.3 27.65,-29.45 55.28,-27.58 27.63,1.87 320.42,108.98 320.42,108.98 l -406.89,-223.27 -117.82,-75.64 c 0,0 -25.76,-25.81 -27.59,-46.07 -1.82,-20.26 7.41,-46.05 33.2,-44.18 25.79,1.87 44.21,-1.81 71.83,12.96 27.62,14.76 213.59,99.67 213.59,99.67 0,0 -204.38,-97.82 -241.18,-138.38 -36.81,-40.56 -34.95,-58.98 -27.56,-79.23 7.38,-20.25 35.02,-23.92 35.02,-23.92 l 158.34,83.04 c 0,0 -46.03,-25.83 -42.33,-36.87 3.69,-11.06 18.44,-29.47 38.7,-27.6 20.27,1.85 197.05,60.96 197.05,60.96 l 171.27,40.7 222.87,24.15 278.09,70.26 c 0,0 83.26,32.84 88.77,49.43 5.51,16.58 142.42,205.5 70.52,275.44"
         style="fill:#f6ab7a;fill-opacity:1;fill-rule:nonzero;stroke:none"
         id="path58" />
      <path
         d="M 2005.01,2852 884.703,3369.75 c 0,0 -13.672,-33.29 -70.418,-58.79 -56.754,-25.51 -174.219,-19.75 -174.219,-19.75 L 1854.32,2793.13 c 0,0 144.86,13.83 150.69,58.87"
         style="fill:#445fb5;fill-opacity:1;fill-rule:nonzero;stroke:none"
         id="path60" />
      <path
         d="m 1161.02,3074.4 c 0,0 -17.59,-31.35 0.07,-76.36 17.66,-45.01 21.6,-72.41 68.6,-88.03 47.01,-15.61 50.92,-17.58 74.39,2.02 23.48,19.6 123.25,96.05 123.25,96.05 l 78.21,105.79 c 0,0 23.45,48.96 -7.89,60.68 -31.33,11.72 -58.74,15.61 -99.81,-29.46 -41.07,-45.06 -117.38,-84.29 -138.91,-94.1 -22.9,-10.43 -97.91,23.41 -97.91,23.41"
         style="fill:#f6ab7a;fill-opacity:1;fill-rule:nonzero;stroke:none"
         id="path62" />
      <path
         d="m 1276.67,2919.85 c 0,0 -13.67,-35.26 3.97,-58.74 17.64,-23.47 52.91,-52.81 82.27,-50.82 29.37,1.99 217.21,100.04 217.21,100.04 l 142.72,211.58 113.39,172.38 c 0,0 -11.78,37.19 -35.28,41.08 -23.49,3.89 -39.16,7.8 -66.54,-17.68 -27.39,-25.48 -123.18,-172.4 -123.18,-172.4 l -129.11,-103.88 c 0,0 -164.35,-105.87 -205.45,-121.56"
         style="fill:#f6ab7a;fill-opacity:1;fill-rule:nonzero;stroke:none"
         id="path64" />
      <path
         d="m 2024.19,3269.02 c 0,0 -9.83,52.85 -41.15,46.94 -31.32,-5.9 -84.13,-58.81 -140.85,-119.55 -56.71,-60.74 -86.05,-96.01 -86.05,-96.01 l -99.78,-70.57 -223.02,-166.62 -19.55,-25.46 c 0,0 -25.42,-37.22 9.83,-46.98 35.25,-9.75 58.78,-48.89 115.53,-23.39 56.74,25.51 242.6,164.68 242.6,164.68 l 117.32,156.73 82.96,119.49 42.16,60.74"
         style="fill:#f6ab7a;fill-opacity:1;fill-rule:nonzero;stroke:none"
         id="path66" />
      <path
         d="m 2014.46,3212.23 c 25.43,-0.95 31.36,-35.21 31.36,-35.21 L 1858.13,2900.8 c 0,0 -219.12,-156.81 -240.64,-168.58 -21.53,-11.77 -66.56,-3.98 -78.34,35.16 -11.79,39.14 301.23,276.32 301.23,276.32 0,0 123.18,170.44 174.08,168.53"
         style="fill:#f6ab7a;fill-opacity:1;fill-rule:nonzero;stroke:none"
         id="path68" />
      <path
         d="m 6057.64,4312.15 c 0,0 405.32,-1296.58 383.42,-1467.58 -21.9,-170.98 -152.26,-697.22 -309.85,-610.59 -157.59,86.64 -379.86,578.21 -447.21,970.2 -67.37,392 -750.18,1676.49 373.64,1107.97"
         style="fill:#de1d25;fill-opacity:1;fill-rule:nonzero;stroke:none"
         id="path70" />
      <path
         d="m 5647.77,4457.59 c -52.89,0 -674.29,66.1 -674.29,66.1 L 4550.4,4338.6 c 0,0 -211.54,13.22 -158.66,-330.54 52.89,-343.76 608.19,-1679.11 713.96,-1745.23 105.77,-66.1 925.49,-185.09 1057.71,-132.2 132.22,52.88 370.19,79.32 370.19,79.32 0,0 0,965.16 26.45,1018.05 26.45,52.88 39.66,370.19 -264.42,608.18 -209.54,163.99 -647.86,621.41 -647.86,621.41"
         style="fill:#ee222d;fill-opacity:1;fill-rule:nonzero;stroke:none"
         id="path72" />
      <path
         d="m 4722.28,4179.93 c 0,0 885.83,-1189.92 899.05,-1361.79 13.22,-171.89 -145.43,-674.3 -317.31,-621.41 -171.88,52.88 -489.19,489.19 -634.63,859.38 -145.43,370.21 -647.85,1573.35 52.89,1123.82"
         style="fill:#de1d25;fill-opacity:1;fill-rule:nonzero;stroke:none"
         id="path74" />
      <path
         d="m 4960.45,5383.08 79.33,-859.39 555.3,-66.1 -132.22,542.07 -502.41,383.42"
         style="fill:#f6ab7a;fill-opacity:1;fill-rule:nonzero;stroke:none"
         id="path76" />
      <path
         d="m 5536.55,4713.91 c -14.76,5.83 -30.49,12.86 -47.43,21.33 -174.87,87.43 -366.68,215.28 -495.94,333.95 l -32.73,380 502.27,-410.81 73.83,-324.47"
         style="fill:#ed8656;fill-opacity:1;fill-rule:nonzero;stroke:none"
         id="path78" />
      <path
         d="m 5965.09,5872.27 c 0,0 39.66,-436.3 -79.33,-687.51 -118.99,-251.2 -105.77,-449.52 -370.2,-317.32 -264.43,132.22 -568.52,356.99 -634.63,502.42 -66.1,145.43 39.67,343.75 211.55,251.21 171.88,-92.55 158.65,39.66 330.53,13.22 171.87,-26.45 489.19,0 542.08,237.98"
         style="fill:#f6ab7a;fill-opacity:1;fill-rule:nonzero;stroke:none"
         id="path80" />
      <path
         d="m 5819.65,1985.19 c 0,0 1427.91,621.4 2009.65,740.4 581.75,118.98 1083.68,436.3 845.7,-198.32 C 8437.01,1892.64 6850.92,755.602 6850.92,755.602 c 0,0 -1560.12,-356.981 -1031.27,1229.588"
         style="fill:#241716;fill-opacity:1;fill-rule:nonzero;stroke:none"
         id="path82" />
      <path
         d="m 7935.07,2500.82 c 0,0 -581.74,-304.09 -740.39,-647.85"
         style="fill:none;stroke:#4349a6;stroke-width:37.4958;stroke-linecap:butt;stroke-linejoin:miter;stroke-miterlimit:10;stroke-dasharray:none;stroke-opacity:1"
         id="path84" />
      <path
         d="m 5250.27,2493.1 c 0,0 11.3,-129.92 11.3,-158.17 0,-28.24 124.27,-62.14 254.2,-62.14 129.92,0 1090.22,553.59 1180.6,593.13 90.38,39.54 299.39,96.03 350.23,101.68 50.84,5.64 90.38,146.86 62.13,237.26 -18.68,59.8 -37.37,112.18 -65.88,129.32 -14.58,8.77 -31.72,8.32 -52.74,-5.06 -62.14,-39.54 -310.68,-254.2 -310.68,-254.2 0,0 -581.83,-107.32 -813.43,-209 -231.6,-101.68 -502.75,-225.95 -615.73,-372.82"
         style="fill:#f6ab7a;fill-opacity:1;fill-rule:nonzero;stroke:none"
         id="path86" />
      <path
         d="m 7340.34,3295.24 -297.49,38.94 65.88,-129.32 -39.54,-197.72 163.82,-28.24 c 0,0 22.6,28.24 -5.65,39.54 -28.24,11.3 -67.79,28.24 -67.79,28.24 0,0 79.09,11.3 112.98,16.94 33.9,5.66 39.54,16.96 39.54,33.9 0,16.94 -33.89,28.24 -33.89,28.24 0,0 62.14,22.6 67.79,39.54 5.64,16.96 16.94,39.56 5.64,56.5 -11.29,16.94 5.66,62.14 -11.29,73.44"
         style="fill:#ed8656;fill-opacity:1;fill-rule:nonzero;stroke:none"
         id="path88" />
      <path
         d="m 7908.63,1218.35 c 0,0 343.75,-52.89 423.08,-26.44 79.34,26.44 475.98,39.66 621.41,-52.89 145.44,-92.55 251.21,-317.309 -198.32,-409.868 -449.53,-92.55 -1044.49,-13.211 -1123.82,39.668 -79.33,52.891 171.88,502.41 277.65,449.53"
         style="fill:#cbe6f8;fill-opacity:1;fill-rule:nonzero;stroke:none"
         id="path90" />
      <path
         d="m 7961.51,1244.79 c 0,0 -1679.11,1216.36 -1996.42,1361.8 -317.32,145.43 -859.39,423.09 -991.61,132.22 -132.21,-290.88 -158.65,-687.52 -92.55,-1044.49 66.11,-356.98 701.58,-794.461 1163.49,-832.949 158.65,-13.219 39.66,608.179 39.66,608.179 l 1586.57,-647.839 290.86,423.079"
         style="fill:#4349a6;fill-opacity:1;fill-rule:nonzero;stroke:none"
         id="path92" />
      <path
         d="m 7657.42,993.59 c 0,0 -2326.96,859.38 -2445.95,978.37 -118.99,119 -13.22,-462.74 26.44,-608.18"
         style="fill:none;stroke:#7b7cc6;stroke-width:37.4958;stroke-linecap:butt;stroke-linejoin:miter;stroke-miterlimit:10;stroke-dasharray:none;stroke-opacity:1"
         id="path94" />
      <path
         d="m 6441.06,1112.58 c 0,0 264.43,237.98 436.3,264.42 171.88,26.45 396.65,105.77 449.53,-79.32 52.89,-185.1 -198.32,-515.637 -555.3,-594.957 -356.98,-79.332 -459.82,-160.934 -647.85,-92.551 -145.43,52.879 -185.1,237.98 -158.65,330.519 26.44,92.549 317.31,118.999 475.97,171.889"
         style="fill:#cbe6f8;fill-opacity:1;fill-rule:nonzero;stroke:none"
         id="path96" />
      <path
         d="m 8623.52,3401.27 -716.12,-415.2 326.12,-505.99 43.71,-21.86 391.67,889.26 -45.38,53.79"
         style="fill:#cbe6f8;fill-opacity:1;fill-rule:nonzero;stroke:none"
         id="path98" />
      <path
         d="m 8826.92,3389.5 -110.95,-38.66 -342.93,-753.09 -20.17,-159.7 c 0,0 48.75,3.37 55.47,11.77 6.73,8.4 418.58,939.68 418.58,939.68"
         style="fill:#284197;fill-opacity:1;fill-rule:nonzero;stroke:none"
         id="path100" />
      <path
         d="m 7248.45,3532.39 112.63,-3.37 c 0,0 410.16,-321.07 527.83,-482.45 117.67,-161.37 350.5,-443.78 368.14,-548 4.39,-25.9 7.41,-34.26 8.41,-41.19 1.68,-11.76 0,46.23 0,46.23 0,0 -1.68,176.51 38.66,277.37 40.34,100.86 319.4,620.29 319.4,620.29 0,0 114.3,-43.7 136.16,-47.07 21.84,-3.36 -383.27,-894.3 -383.27,-894.3 0,0 -35.31,-44.55 -89.09,-31.09 -53.8,13.45 -81.54,0 -121.04,52.95 -11.1,14.88 -42.03,85.73 -42.03,85.73 l -875.8,964.9"
         style="fill:#eff7fd;fill-opacity:1;fill-rule:nonzero;stroke:none"
         id="path102" />
      <path
         d="m 7150.95,3601.31 26.89,1.68 998.53,-1072.48 c 0,0 8.4,-21.86 5.04,-33.62 -3.36,-11.77 16.1,-50.8 59.68,-54.63 40.85,-3.61 100.91,-13.15 135.32,0.84 33.54,13.63 450.51,946.4 450.51,946.4 l 18.49,-8.4 -416.89,-904.39 c 0,0 10.08,-23.53 -3.36,-31.93 -13.45,-8.41 -79.02,-38.67 -95.82,-40.34 -16.81,-1.69 -1017.01,-420.26 -1017.01,-420.26 l -129.45,50.43 -40.34,63.88 -674.08,709.38 682.49,793.44"
         style="fill:#3a52ac;fill-opacity:1;fill-rule:nonzero;stroke:none"
         id="path104" />
      <path
         d="m 6443.24,2858.3 707.71,743.01 1000.2,-1084.25 -973.31,-458.91 -779.99,753.08 45.39,47.07"
         style="fill:#445fb5;fill-opacity:1;fill-rule:nonzero;stroke:none"
         id="path106" />
      <path
         d="m 6099.21,2926.22 c 0,0 47.44,21.56 149.51,66.14 102.07,44.56 172.51,113.57 202.71,110.69 30.18,-2.87 195.51,-97.76 195.51,-97.76 l 241.52,-116.44 c 0,0 46,-40.25 34.5,-64.7 -11.49,-24.43 -21.56,-23 -43.12,-21.56 -21.57,1.43 -250.15,84.81 -250.15,84.81 l 317.71,-173.94 92.01,-58.95 c 0,0 20.12,-20.12 21.57,-35.93 1.43,-15.81 -5.75,-35.95 -25.88,-34.51 -20.13,1.44 -34.5,-1.44 -56.07,10.06 -21.57,11.51 -166.76,77.64 -166.76,77.64 0,0 159.58,-76.2 188.33,-107.82 28.75,-31.63 27.31,-46.01 21.56,-61.82 -5.75,-15.82 -27.32,-18.69 -27.32,-18.69 l -123.63,64.69 c 0,0 35.94,-20.13 33.07,-28.75 -2.88,-8.63 -14.39,-23 -30.2,-21.57 -15.81,1.44 -153.82,47.45 -153.82,47.45 l -133.7,31.63 -173.95,18.68 -217.08,54.64 c 0,0 -38.82,-10.07 -43.13,2.87 -4.31,12.94 -109.25,218.51 -53.19,273.14"
         style="fill:#f6ab7a;fill-opacity:1;fill-rule:nonzero;stroke:none"
         id="path108" />
      <path
         d="m 7182.88,2034.61 961.55,445.47 c 0,0 11.76,-28.58 60.51,-50.43 48.75,-21.86 149.61,-16.82 149.61,-16.82 L 7312.33,1984.18 c 0,0 -124.4,11.77 -129.45,50.43"
         style="fill:#445fb5;fill-opacity:1;fill-rule:nonzero;stroke:none"
         id="path110" />
      <path
         d="m 7907.4,2226.24 c 0,0 15.13,-26.89 0,-65.55 -15.12,-38.67 -18.49,-62.2 -58.83,-75.65 -40.35,-13.45 -43.71,-15.14 -63.88,1.68 -20.18,16.81 -105.91,82.37 -105.91,82.37 l -67.24,90.77 c 0,0 -20.17,42.03 6.73,52.11 26.9,10.09 50.43,13.45 85.73,-25.21 35.3,-38.66 100.86,-72.29 119.35,-80.68 19.68,-8.95 84.05,20.16 84.05,20.16"
         style="fill:#f6ab7a;fill-opacity:1;fill-rule:nonzero;stroke:none"
         id="path112" />
      <path
         d="m 7808.22,2093.44 c 0,0 11.77,-30.25 -3.36,-50.43 -15.13,-20.17 -45.39,-45.38 -70.6,-43.7 -25.22,1.68 -186.59,85.73 -186.59,85.73 l -122.72,181.54 -97.5,147.93 c 0,0 10.09,31.95 30.26,35.31 20.17,3.36 33.62,6.72 57.15,-15.13 23.54,-21.86 105.91,-147.93 105.91,-147.93 l 110.95,-89.09 c 0,0 141.2,-90.77 176.5,-104.23"
         style="fill:#f6ab7a;fill-opacity:1;fill-rule:nonzero;stroke:none"
         id="path114" />
      <path
         d="m 7166.08,2392.67 c 0,0 8.4,45.38 35.3,40.34 26.89,-5.05 72.28,-50.43 121.03,-102.54 48.74,-52.12 73.97,-82.37 73.97,-82.37 l 85.73,-60.52 191.63,-142.89 16.81,-21.85 c 0,0 21.85,-31.94 -8.4,-40.34 -30.26,-8.41 -50.43,-42.03 -99.18,-20.17 -48.75,21.85 -208.45,141.2 -208.45,141.2 l -100.86,134.48 -71.33,102.55 -36.25,52.11"
         style="fill:#f6ab7a;fill-opacity:1;fill-rule:nonzero;stroke:none"
         id="path116" />
      <path
         d="m 7174.48,2343.92 c -21.83,-0.84 -26.9,-30.27 -26.9,-30.27 l 161.39,-237.02 c 0,0 188.27,-134.48 206.75,-144.57 18.5,-10.08 57.16,-3.36 67.25,30.27 10.09,33.62 -258.88,237.02 -258.88,237.02 0,0 -105.91,146.25 -149.61,144.57"
         style="fill:#f6ab7a;fill-opacity:1;fill-rule:nonzero;stroke:none"
         id="path118" />
    </g>
  </g>
</svg>
